<?xml version="1.0" standalone="no"?>
<!DOCTYPE svg PUBLIC "-//W3C//DTD SVG 1.1//EN" "http://www.w3.org/Graphics/SVG/1.1/DTD/svg11.dtd" >
<svg xmlns="http://www.w3.org/2000/svg" xmlns:xlink="http://www.w3.org/1999/xlink" version="1.1">
<metadata></metadata>
<defs>
<font id="akzidenz-grotesk_bq_condensBd" horiz-adv-x="811" >
<font-face units-per-em="2048" ascent="1638" descent="-410" />
<missing-glyph horiz-adv-x="468" />
<glyph horiz-adv-x="0" />
<glyph horiz-adv-x="682" />
<glyph unicode=" "  horiz-adv-x="468" />
<glyph unicode="&#x09;" horiz-adv-x="468" />
<glyph unicode="&#xa0;" horiz-adv-x="468" />
<glyph unicode="!" horiz-adv-x="468" d="M154 0v270h243v-270h-243zM160 793v653h231v-641l-39 -416h-159z" />
<glyph unicode="&#x22;" horiz-adv-x="614" d="M51 1518h213l-69 -592h-68zM350 1518h215l-69 -592h-68z" />
<glyph unicode="#" horiz-adv-x="1099" d="M31 451v196h258l16 182h-250v197h271l39 420h196l-39 -420h146l39 420h196l-41 -420h207v-197h-223l-19 -182h217v-196h-233l-43 -451h-195l41 451h-145l-43 -451h-197l41 451h-239zM487 647h146l16 182h-147z" />
<glyph unicode="$" horiz-adv-x="854" d="M76 1100q0 152 65 233q75 94 244 105v166h104v-166q103 -13 166 -64q55 -43 80 -109.5t25 -189.5q0 -15 -1 -46t-1 -46h-230v135q0 28 -0.5 41t-7.5 34t-20 34q-28 28 -78 28q-70 0 -98 -57q-10 -21 -13 -57q0 -6 -1 -19t-1 -20q0 -11 1 -21.5t3.5 -19.5t4 -15.5t6 -14.5 t6.5 -12t8 -11.5t7.5 -9t8.5 -9t8 -8.5l306 -317q37 -37 61 -72q35 -51 46 -103t11 -129q0 -204 -104 -297q-35 -30 -78.5 -48t-61.5 -20.5t-53 -6.5v-193h-104v193q-135 7 -209 71q-52 45 -74 109q-20 56 -20 151v160h227v-162q0 -38 10 -67q9 -22 25 -37t34.5 -21t31 -8 t22.5 -2q40 0 72 19q51 36 51 155q0 46 -11 80t-22.5 49.5t-32.5 36.5l-288 295q-37 37 -66 78q-19 27 -29.5 47.5t-20 62.5t-9.5 95z" />
<glyph unicode="%" horiz-adv-x="1449" d="M53 672v463q0 64 13 104q24 71 87 103t144 32q20 0 41 -2.5t62.5 -12t76 -37t51.5 -69.5q17 -47 17 -104v-481q0 -93 -49 -150q-64 -72 -193 -72q-199 0 -240 136q-10 31 -10 90zM217 655q0 -29 8.5 -46t32.5 -25q16 -6 41 -6q29 0 49 10q19 11 25 26t6 52v485v10v12 t-0.5 12t-2 13.5t-4.5 12t-7 11.5t-10 9.5t-14 8.5t-18.5 5t-23.5 2q-24 0 -40.5 -7t-24.5 -16t-12 -24t-4.5 -23.5t-0.5 -22.5v-5v-494zM389 -47l545 1511l129 -47l-543 -1509zM905 213v463q0 60 15 106q18 54 75 93.5t156 39.5q185 0 231 -122q17 -42 17 -103v-481 q0 -89 -47 -146q-61 -75 -195 -75q-152 0 -213 82q-15 15 -26 47q-13 37 -13 96zM1069 197q0 -29 8.5 -46.5t32.5 -25.5q16 -6 41 -6q29 0 49 10q19 11 25 26t6 52v485v10v12t-0.5 12t-2 13.5t-4.5 12t-7 11.5t-10 9.5t-14 8.5t-18.5 5t-23.5 2q-24 0 -40.5 -7t-24.5 -16 t-12 -24t-4.5 -23.5t-0.5 -22.5v-5v-493z" />
<glyph unicode="&#x26;" horiz-adv-x="1067" d="M55 373q0 87 29 162q9 25 21 49.5t26 47t28 42.5t30.5 39.5t29.5 34t29 30.5t24.5 24t21 19.5t13.5 12.5q-15 25 -28 53q-12 24 -26 56.5t-33 102t-19 123.5q0 86 41 163t116 112q55 26 142 26q78 0 129 -22q149 -70 149 -238q0 -29 -3 -55.5t-12 -53.5t-16 -47 t-23.5 -47.5t-25 -42t-31 -43t-31 -39.5t-35.5 -42.5t-34 -40.5l189 -369l12 31q29 73 31 194h211q-8 -161 -41 -257.5t-90 -176.5q27 -30 59 -42t98 -11l-2 -174l-22 -4q-23 -3 -46 -5.5t-46 -2.5q-114 0 -189 75q-83 -45 -140 -63.5t-134 -18.5q-87 0 -160 27 q-117 43 -179.5 143.5t-62.5 227.5zM295 375q0 -43 12 -74q18 -49 64.5 -78.5t99.5 -29.5q70 0 141 43l-211 382q-53 -69 -79.5 -122t-26.5 -121zM420 1182q0 -68 49 -166q9 14 27.5 41.5t27.5 42.5q24 38 31.5 60t7.5 48q0 40 -21.5 58t-45.5 18q-37 -1 -56.5 -32.5 t-19.5 -69.5z" />
<glyph unicode="'" horiz-adv-x="315" d="M51 1518h213l-69 -592h-68z" />
<glyph unicode="(" horiz-adv-x="598" d="M111 182v842q0 102 35.5 191t99.5 157.5t140 120t171 92.5v-190q-115 -64 -159 -165.5t-44 -246.5v-813q0 -124 48 -205t155 -160v-178q-105 37 -195 101q-126 89 -188.5 198t-62.5 256z" />
<glyph unicode=")" horiz-adv-x="598" d="M41 -182q116 63 159.5 164t43.5 247v813q0 67 -12 117.5t-41.5 94t-61.5 75t-88 78.5v178q100 -33 195 -102q128 -93 189.5 -199.5t61.5 -255.5v-842q0 -364 -446 -559v191z" />
<glyph unicode="*" horiz-adv-x="774" d="M41 1126l51 170l201 -57v211h178v-213l205 70l57 -166l-201 -70l123 -162l-139 -108l-131 170l-119 -170l-143 104l115 164z" />
<glyph unicode="+" horiz-adv-x="1142" d="M168 510v205h283v321h243v-321h281v-205h-281v-324h-243v324h-283z" />
<glyph unicode="," horiz-adv-x="382" d="M53 -276l140 276h-119v264h239v-264l-170 -276h-90z" />
<glyph unicode="-" horiz-adv-x="643" d="M68 496v202h507v-202h-507z" />
<glyph unicode="." horiz-adv-x="382" d="M72 0v264h239v-264h-239z" />
<glyph unicode="/" horiz-adv-x="512" d="M25 0l266 1446h201l-265 -1446h-202z" />
<glyph unicode="0" d="M59 317v705q0 9 1 28t1 29q3 58 15.5 100.5t42.5 82.5q89 118 282 118q142 0 220.5 -52t107.5 -130q21 -59 21 -156v-731q0 -57 -13 -108q-6 -24 -17 -49t-32.5 -57.5t-60 -59.5t-88.5 -41q-58 -14 -127 -14q-183 0 -271 86q-41 41 -61 100q-21 68 -21 149zM297 267.5 q0 -7.5 5 -30.5t15 -35.5t31.5 -24t52.5 -11.5q43 0 70 18q20 14 30 37.5t11.5 40.5t1.5 47v740q0 65 -8 90q-19 63 -98 63q-18 0 -33 -3.5t-26 -9t-19.5 -14t-14 -16t-9.5 -19t-5.5 -19t-2.5 -19.5t-1 -17v-15v-11v-766v-25.5z" />
<glyph unicode="1" d="M98 954l2 189q3 1 20 5.5t30 10.5q25 9 75 40.5t88 70.5q27 29 70 92h160v-1362h-240v1038q-15 -12 -33 -24q-74 -44 -172 -60z" />
<glyph unicode="2" d="M43 0v33q0 198 70 344q19 39 40.5 71.5t56 70.5t50 54t64.5 64q7 7 20 19t23.5 23t19.5 21l16.5 16.5t18 18.5t16 16.5t17.5 19t14 18.5t14 21t11 21q16 35 16 93v155q0 71 -35 101q-25 18 -65 18q-37 0 -60 -10q-55 -28 -55 -121v-162h-223v166q0 69 13.5 119t51.5 94 q88 96 264 96h24t39 -3t53 -8t56 -16.5t58.5 -28t49 -43t38.5 -60.5q13 -33 19.5 -76.5t6.5 -59.5v-180q0 -77 -18 -129q-10 -30 -29 -60.5t-58 -73.5t-68 -72.5t-95 -94.5q-5 -5 -25 -24.5t-27.5 -27.5t-25 -26.5t-26.5 -31t-21.5 -30t-20.5 -34t-14 -33.5q-8 -32 -10 -63 h453v-205h-717z" />
<glyph unicode="3" d="M59 262v166h236v-145q0 -45 6 -60q23 -59 111 -59q34 0 59 14q43 27 43 96v205q0 35 -1 50.5t-10.5 41.5t-29.5 43q-18 15 -44 23t-43 9t-48 1h-49v160h49q94 0 135 43q16 16 24 40t8.5 38t0.5 47v102q0 1 0.5 8t0 12.5t-1.5 15.5t-3 17.5t-6.5 17t-10.5 16.5t-16 13.5 t-23 10.5q-24 8 -45 8q-9 0 -20 -2t-28.5 -8t-31.5 -20.5t-20 -35.5q-4 -14 -4 -34v-142h-225v170q0 66 26 115q39 77 125.5 109t188.5 32q126 0 200.5 -43.5t104.5 -109.5q26 -59 26 -127v-154q0 -36 -1.5 -54.5t-11 -44.5t-28.5 -46q-20 -22 -48 -36t-47.5 -18.5 t-57.5 -11.5q39 -6 63 -11t58 -21.5t51 -40.5q31 -45 31 -162v-207q0 -70 -19 -125q-14 -34 -37.5 -64t-61 -59t-96 -46t-130.5 -17q-20 0 -41 1.5t-66.5 10.5t-82.5 25.5t-76 51.5t-60 83q-1 2 -4.5 10.5t-4.5 10.5t-3.5 10t-3.5 12t-3 12.5t-2.5 15.5t-1 16.5t-0.5 20.5z " />
<glyph unicode="4" d="M43 258v191l350 919h285v-919h82v-191h-82v-258h-219v258h-416zM244 449h215l14 677z" />
<glyph unicode="5" d="M57 283v141h236v-139q0 -37 4 -52q19 -65 100 -65t103 55q10 22 10 58v337q0 36 -1 53t-12 43.5t-34 39.5q-24 16 -62 16q-18 0 -35.5 -4.5t-41.5 -23.5t-37 -50q-14 -30 -17 -59h-188l14 729h635v-205h-442l-4 -278q96 71 200 71q59 -1 106 -18.5t75.5 -45t45 -53.5 t25.5 -53q15 -46 15 -125v-338q0 -73 -19 -143q-58 -192 -321 -192q-162 0 -248 63q-35 26 -59 62.5t-33 73.5t-12 59.5t-3 42.5z" />
<glyph unicode="6" d="M63 301v784q0 95 43 164q79 131 312 131q51 0 102 -9.5t102.5 -36t77.5 -66.5q22 -35 31.5 -71.5t9.5 -100.5v-95h-225v74q0 27 -1.5 42.5t-11.5 36.5t-30 32q-25 12 -61 12q-28 0 -49.5 -6.5t-33.5 -20.5t-19 -25t-9.5 -31t-3 -26.5t-0.5 -23.5v-268q27 23 47 36.5 t68.5 30.5t101.5 17q56 0 100 -17t69 -44.5t38.5 -52t19.5 -50.5q11 -46 11 -103v-317q0 -89 -19 -139q-29 -75 -107 -125.5t-216 -50.5q-179 0 -271 92q-41 41 -59 94q-17 45 -17 133zM297 326q0 -30 1 -47t9.5 -41.5t24.5 -40.5q31 -29 82 -29q70 0 94 59q10 23 10 64v248 q0 55 -8 81.5t-31 43.5q-25 20 -65 20q-35 0 -66 -16q-33 -20 -42 -47t-9 -72v-223z" />
<glyph unicode="7" d="M41 1001v361h735v-203q-45 -77 -53 -94q-106 -190 -176 -434q-103 -338 -101 -631h-256q3 122 48 322q87 384 264 735q10 20 29.5 54.5t27.5 49.5h-319v-160h-199z" />
<glyph unicode="8" d="M57 293v174q0 57 9 98q7 34 19.5 58.5t34 43.5t41 30.5t54.5 29.5q-1 1 -12.5 6.5t-28 15t-27.5 17.5q-72 56 -71 175v5v144q0 61 11 104.5t42 83.5q22 31 70 59q78 43 207 43q128 0 203.5 -43.5t103.5 -111.5q20 -47 20 -144v-118q0 -59 -4.5 -87t-19.5 -55t-39.5 -46.5 t-79.5 -47.5q70 -32 96 -55q62 -53 62 -174v-185q0 -84 -16 -139.5t-68 -103.5q-96 -88 -256 -88q-132 0 -211.5 48.5t-112.5 119.5q-27 68 -27 143zM293 313q0 -104 51 -129q28 -14 59 -14q35 0 64 14q49 27 49 117v205q0 29 -1.5 44t-11 36t-28.5 35q-27 18 -67 18 q-34 0 -57.5 -12t-34.5 -25.5t-16.5 -37.5t-6 -33t-0.5 -27v-191zM301 926q0 -54 16 -80q22 -37 91 -37q52 0 75 29q13 13 18.5 33t6 30.5t0.5 38.5v143q0 74 -45 97q-25 14 -57 14q-35 0 -63 -16t-38 -48q-4 -16 -4 -38v-166z" />
<glyph unicode="9" d="M53 258v109h236v-86q0 -37 8 -64q20 -55 100 -55q93 0 111 67q4 12 4 50v288q-2 -2 -14.5 -11t-18 -13t-19.5 -13t-24 -13.5t-26.5 -11t-31 -10t-34 -6t-39.5 -2.5q-103 1 -158.5 42.5t-76.5 99.5q-17 53 -17 98v336q0 120 45 190q24 43 70 74q86 53 240 53 q243 0 313 -151q24 -55 24 -148v-790q0 -60 -10.5 -104t-40.5 -85q-88 -120 -309 -120q-184 0 -268 96q-39 45 -54 96q-10 45 -10 84zM289 823q0 -50 4 -72t22 -42q27 -31 82 -31q54 0 78 24q18 15 26.5 38t9.5 36.5t1 46.5v252q0 40 -7.5 65.5t-35.5 43.5q-27 18 -66 18 q-115 -11 -114 -141v-238z" />
<glyph unicode=":" horiz-adv-x="468" d="M156 0v266h245v-266h-245zM156 780v269h245v-269h-245z" />
<glyph unicode=";" horiz-adv-x="468" d="M137 -276l146 276h-129v266h243v-266l-168 -276h-92zM154 782v267h243v-267h-243z" />
<glyph unicode="&#x3c;" horiz-adv-x="1144" d="M178 551v219l733 399v-233l-510 -266l510 -260v-254z" />
<glyph unicode="=" horiz-adv-x="1144" d="M174 332v200h797v-200h-797zM174 725v201h797v-201h-797z" />
<glyph unicode="&#x3e;" horiz-adv-x="1144" d="M233 156v231l510 268l-510 260v254l734 -397v-217z" />
<glyph unicode="?" horiz-adv-x="854" d="M133 948v152q0 82 8 137q6 39 18.5 70.5t37 61.5t60 50t90.5 32.5t126 12.5q155 0 236 -61q39 -26 61 -74q27 -58 27 -180v-82q0 -55 -13.5 -109.5t-33.5 -83.5l-140 -202q-47 -69 -63.5 -100.5t-20.5 -65.5q-4 -25 -4 -72v-45h-231v72q0 51 2 67q6 50 20 82t47 82 l136 209q2 3 11.5 17.5t11.5 18t9 16t9 18.5t6.5 18.5t5.5 23t2.5 25t1.5 31.5v129q0 10 -1 19.5t-6.5 25t-14.5 27t-27.5 20t-42.5 8.5q-55 0 -78 -28.5t-23 -81.5v-240h-227zM291 0v266h237v-266h-237z" />
<glyph unicode="@" horiz-adv-x="1708" d="M78 477q0 203 72.5 385.5t196 314t295.5 208.5t364 77q275 0 446.5 -160t171.5 -417q0 -191 -69.5 -364t-185 -277.5t-241.5 -104.5q-74 0 -122 37t-60 103q-116 -140 -258 -140q-128 0 -202 90.5t-74 245.5q0 156 62.5 294.5t167 221t222.5 82.5q50 0 97 -18 q35 -13 58 -35t56 -70l21 82h182l-72 -325q-63 -290 -63 -340q0 -56 41 -56q34 0 90 56q80 86 129 225t49 278q0 206 -120.5 322.5t-332.5 116.5q-148 0 -286 -67t-239 -178.5t-161.5 -264t-60.5 -316.5q0 -258 154 -409q80 -77 197.5 -120.5t246.5 -43.5q177 0 347.5 76.5 t318.5 222.5l92 -127q-85 -77 -134.5 -115t-115.5 -78q-240 -139 -518 -139q-124 0 -246 33q-92 27 -179.5 76t-146.5 108q-190 184 -190 510zM623 492q0 -78 33.5 -123t91.5 -45q42 0 86 28t79 78q38 54 64.5 137t26.5 150q0 79 -37 126.5t-99 47.5q-61 0 -118 -56.5 t-92 -149.5t-35 -193z" />
<glyph unicode="A" horiz-adv-x="894" d="M20 0l281 1446h305l271 -1446h-271l-35 236h-245l-39 -236h-267zM358 459h185l-88 620z" />
<glyph unicode="B" horiz-adv-x="980" d="M102 0v1446h449q60 0 88 -1.5t73 -14t79 -39.5q39 -30 58.5 -72t23.5 -76.5t4 -91.5v-129q0 -58 -9 -102q-8 -34 -24 -60.5t-30.5 -39.5t-39 -23.5t-34.5 -12.5t-31 -6q60 -11 90.5 -27t52.5 -42q7 -10 13 -19.5t10.5 -21.5l7.5 -20t5 -23t3 -20.5t1.5 -23.5t0.5 -21v-24 v-22v-205q0 -12 -1 -33.5t-1 -31.5q-9 -162 -127 -215q-63 -29 -205 -29h-457zM369 209h112q48 0 68 4q44 6 63 37.5t19 103.5v170q0 60 -8 80q-13 39 -49.5 50.5t-90.5 11.5h-114v-457zM369 874h96q32 0 72 5q40 8 57.5 36.5t17.5 92.5v98q0 36 -6 63q-6 24 -19 39.5 t-33.5 21.5t-36.5 7.5t-42 1.5h-106v-365z" />
<glyph unicode="C" horiz-adv-x="937" d="M90 307v787q0 25 4 75q6 147 103 224q105 84 299 84q170 0 270 -66q64 -44 90 -106q17 -34 21 -64t4 -100v-221h-263v182q0 91 -26.5 130.5t-110.5 39.5q-71 0 -97 -40t-26 -118v-774q0 -80 27 -122t104 -42q82 0 105.5 41t23.5 137v189h263v-205q0 -110 -21 -172 q-14 -41 -41.5 -74t-56 -53t-67.5 -34.5t-66.5 -21t-63 -10.5t-46.5 -4h-27q-70 0 -138 15q-186 35 -243 172q-21 56 -21 151z" />
<glyph unicode="D" horiz-adv-x="980" d="M102 0v1446h490q114 0 199 -72q67 -57 86.5 -129t19.5 -180v-676q0 -53 -2 -80q-5 -105 -44 -169.5t-91 -94.5q-50 -29 -102 -37t-128 -8h-428zM369 211h94q51 0 76 4q31 6 50.5 19.5t28 36.5t11 43.5t2.5 52.5v720q0 33 -1 47t-9.5 37.5t-26.5 38.5q-7 6 -15 10.5 t-17.5 7t-16 4.5t-19 2.5t-17 0.5h-19h-17.5h-104v-1024z" />
<glyph unicode="E" horiz-adv-x="854" d="M102 0v1446h701v-219h-434v-340h409v-219h-409v-445h454v-223h-721z" />
<glyph unicode="F" d="M102 0v1446h709v-223h-440v-363h413v-215h-413v-645h-269z" />
<glyph unicode="G" horiz-adv-x="980" d="M90 264v823q0 121 27 193q21 57 63 97.5t97.5 61.5t109.5 29.5t115 8.5q257 0 346 -134q39 -58 39 -153v-211h-266v139v8q0 31 -1.5 47t-12 38t-32.5 36q-32 21 -79 21q-53 0 -84 -23q-30 -21 -41 -57.5t-11 -106.5v-764q0 -45 11 -75q26 -66 114 -66q73 0 105 37 q15 16 22.5 41.5t8 39.5t0.5 48v225h-164v217h430v-784h-228v86q-37 -39 -57 -55q-82 -62 -201 -62q-122 0 -192.5 50.5t-97.5 117.5q-21 54 -21 127z" />
<glyph unicode="H" horiz-adv-x="980" d="M102 0v1446h267v-567h243v567h267v-1446h-267v662h-243v-662h-267z" />
<glyph unicode="I" horiz-adv-x="468" d="M102 0v1446h265v-1446h-265z" />
<glyph unicode="J" d="M2 264v195h248v-137q0 -58 9 -86.5t36 -42.5q26 -13 49 -13q30 0 57 19q24 18 31.5 46t7.5 85v1116h269v-1118q0 -89 -17 -154q-58 -205 -352 -205q-151 0 -240 64q-53 37 -80 110q-18 57 -18 121z" />
<glyph unicode="K" horiz-adv-x="937" d="M102 0v1446h271v-563l289 563h274l-330 -625l338 -821h-289l-282 707v-707h-271z" />
<glyph unicode="L" horiz-adv-x="768" d="M102 0v1446h267v-1227h391v-219h-658z" />
<glyph unicode="M" horiz-adv-x="1409" d="M102 0v1446h435l170 -1012l172 1012h428v-1446h-267l25 1253l-234 -1253h-247l-240 1253l21 -1253h-263z" />
<glyph unicode="N" horiz-adv-x="1024" d="M102 0v1446h342l261 -1061l-27 1061h244v-1446h-336l-256 1083l22 -1083h-250z" />
<glyph unicode="O" horiz-adv-x="980" d="M90 309v811q0 181 90 262q107 95 316 95q145 0 235 -49t127 -121q33 -67 33 -193v-805q0 -78 -17.5 -137t-66.5 -106q-104 -97 -313 -97q-198 0 -301 84q-53 43 -72 90q-31 63 -31 166zM358 346q0 -90 25 -125q31 -43 109 -43q47 0 83 25q23 16 34 43.5t12.5 46t1.5 55.5 v748l1 8v16t-1 20.5t-2.5 24t-5.5 24.5t-9 23q-28 64 -110 64q-50 0 -86 -27q-11 -7 -19.5 -16.5t-14 -17.5t-9 -21t-5.5 -20t-3 -22.5t-1 -21v-23.5v-22v-731v-8z" />
<glyph unicode="P" horiz-adv-x="937" d="M102 0v1446h537q43 0 72 -6q57 -12 91.5 -42.5t49.5 -60.5q31 -61 31 -217v-190q0 -108 -10 -162.5t-42 -93.5q-32 -40 -84.5 -56t-150.5 -16h-225v-602h-269zM371 809h129q82 0 102 29q19 26 19 100v147q0 5 0.5 24t0 26.5t-2.5 22t-6.5 25t-12.5 19.5q-7 9 -17.5 15.5 t-19.5 10t-20 5t-17.5 1.5h-15.5l-8 -1h-131v-424z" />
<glyph unicode="Q" horiz-adv-x="980" d="M90 283v843q0 109 31 174q37 75 129.5 126t241.5 51q188 0 294 -88q47 -39 68 -84q18 -37 25.5 -77.5t7.5 -113.5v-813q0 -68 -9 -103t-30 -75l145 -152l-164 -161l-182 186q-4 -1 -12 -4t-12 -4q-79 -19 -156 -19q-201 0 -301 103q-36 39 -51 78q-25 55 -25 133z M358 309q0 -22 4 -40.5t15.5 -40t39.5 -34t70 -12.5q38 0 64.5 12.5t39 27.5t19.5 40.5t7.5 38.5t0.5 35v6v801q0 131 -126 131q-36 0 -70 -14q-22 -10 -35.5 -27t-19.5 -39.5t-7.5 -40.5t-1.5 -45v-799z" />
<glyph unicode="R" horiz-adv-x="980" d="M102 0v1446h533q132 0 196 -63t64 -195v-262q0 -108 -37.5 -163.5t-132.5 -84.5l225 -678h-276l-205 641h-100v-641h-267zM369 854h139q69 0 96 29.5t27 107.5v129q0 67 -27 93t-96 26h-139v-385z" />
<glyph unicode="S" horiz-adv-x="937" d="M78 299v211h264v-168q0 -74 10 -101q11 -29 37 -46q34 -21 82 -21q62 0 92 27q27 21 33 62t6 130q0 90 -29 133q-7 11 -17 21.5t-17 16t-16.5 12.5t-10.5 8l-252 170q-46 31 -70.5 54t-50.5 64q-26 42 -38.5 93t-12.5 137q0 126 35 198q17 36 44.5 65t56.5 47t65.5 31.5 t64 19.5t58.5 9.5t44 4t25 0.5q19 0 36.5 -1t55.5 -6t71.5 -17.5t70.5 -32t67.5 -54.5t48.5 -80q1 -3 5.5 -14t5.5 -14.5t4 -12.5t3.5 -15t2 -16.5t2 -22t0.5 -26.5v-143h-266v147q0 43 -25.5 74t-93.5 31q-54 0 -86.5 -30.5t-32.5 -113.5q0 -98 29 -139q11 -17 55 -47 l258 -178q68 -45 119 -113q10 -14 18.5 -26.5t14 -28t10 -24.5t7 -27t4.5 -24.5t2.5 -28.5t0.5 -27v-32v-32q0 -95 -2 -135t-12 -78q-62 -221 -375 -221q-193 0 -297 82q-50 39 -76 99q-11 29 -15 40.5t-8.5 40.5t-4.5 68z" />
<glyph unicode="T" d="M4 1237v209h803v-209h-268v-1237h-269v1237h-266z" />
<glyph unicode="U" horiz-adv-x="980" d="M100 332v1114h267v-1075q0 -78 14 -113q28 -61 111 -61q47 0 77 22q9 6 16.5 15t12 16.5t8 19.5t5 19.5t2.5 22t1 20v22v19.5v1073h269v-1120q0 -73 -13 -127t-53 -105q-96 -125 -334 -125q-195 0 -295 105q-40 40 -61 98q-27 69 -27 160z" />
<glyph unicode="V" horiz-adv-x="854" d="M12 1446h283l141 -957l131 957h273l-273 -1446h-268z" />
<glyph unicode="W" horiz-adv-x="1449" d="M25 1446h276l145 -1090l156 1090h252l152 -1090l151 1090h270l-278 -1446h-281l-139 987l-156 -987h-284z" />
<glyph unicode="X" horiz-adv-x="980" d="M29 0l319 770l-285 676h291l138 -408l139 408h291l-289 -684l319 -762h-293l-170 502l-172 -502h-288z" />
<glyph unicode="Y" horiz-adv-x="854" d="M2 1446h281l147 -729l141 729h281l-289 -1018v-428h-272v446z" />
<glyph unicode="Z" horiz-adv-x="854" d="M47 0v168l461 1055h-402v223h705v-143l-473 -1078h465v-225h-756z" />
<glyph unicode="[" horiz-adv-x="681" d="M102 -352v1906h492v-182h-250v-1540h252v-184h-494z" />
<glyph unicode="\" horiz-adv-x="512" d="M25 1446h202l265 -1446h-201z" />
<glyph unicode="]" horiz-adv-x="681" d="M88 1372v182h494v-1906h-492v184h250v1540h-252z" />
<glyph unicode="^" horiz-adv-x="1144" d="M104 733l357 713h225l354 -713h-249l-216 496l-219 -496h-252z" />
<glyph unicode="_" horiz-adv-x="1024" d="M-20 -264h1064v-189h-1064v189z" />
<glyph unicode="`" horiz-adv-x="512" d="M31 1446h313l137 -270h-178z" />
<glyph unicode="a" d="M66 238v31v28q0 102 10 141q12 43 39 74q34 41 110 78l254 127v61q0 48 -7 73t-26 38q-23 14 -53 14q-58 0 -76 -41q-8 -18 -8 -98v-39h-223v119q0 92 59 149q78 78 265 78q213 0 286 -131q25 -43 25 -100v-584v-32.5v-44.5t1.5 -43t5 -47.5t9.5 -38t15 -32.5 q2 -7 16 -18h-256q-15 17 -20.5 35t-8.5 57q-4 -4 -16.5 -18t-20.5 -21q-76 -76 -174 -76q-75 0 -127 39q-13 9 -23.5 21t-18 22.5t-13.5 28t-10 27.5t-7 31.5t-4 29.5t-2 32.5t-1 29.5zM303 283q0 -64 12 -93t47 -28q46 0 89 37l26 22v307l-119 -77q-12 -9 -20 -17 q-22 -21 -28.5 -52.5t-6.5 -98.5z" />
<glyph unicode="b" horiz-adv-x="854" d="M90 0v1446h244v-479q33 28 41 34q102 68 178 68q67 0 124.5 -38.5t80.5 -100.5q18 -48 18 -105v-594q0 -58 -16 -108q-25 -67 -82 -106.5t-129 -39.5q-101 0 -176 72q-22 22 -37 47l-2 -96h-244zM332 324q0 -28 2 -48q6 -47 29 -69.5t71 -22.5q45 0 68 29q26 35 26 111 v440q0 68 -28 94q-25 25 -64 25q-72 0 -96 -64q-8 -24 -8 -71v-424z" />
<glyph unicode="c" d="M78 285v465q0 126 57 200q31 41 75.5 67.5t90.5 36.5t71 12.5t48 2.5q14 0 28 -1t48 -4.5t64.5 -14.5t64.5 -27t62 -45t44 -66q21 -54 21 -135v-125h-240v127q0 27 -4 51q-6 25 -28 46q-21 20 -56 20h-4q-35 0 -58 -14q-25 -17 -34 -45t-9 -82v-457q0 -51 7 -72 q9 -32 33 -48.5t57 -16.5q30 0 53 14q41 28 41 121v121h242v-119q0 -135 -60 -211q-84 -106 -272 -106q-189 0 -279 98q-29 38 -43 74q-20 54 -20 133z" />
<glyph unicode="d" horiz-adv-x="854" d="M80 315v478v13.5v19t1 22.5t2.5 26t5.5 27t9 29.5t13.5 28t18.5 28t24.5 26t31.5 23.5q63 35 121 35q61 0 108.5 -27.5t102.5 -78.5v481h244v-1446h-246l2 102q-37 -52 -62 -73q-59 -49 -140 -49h-3q-75 0 -145 45q-56 41 -72 99.5t-16 190.5zM322 303q0 -47 6.5 -68 t27.5 -34q23 -17 60 -17q57 0 84 41q18 26 18 86v451q0 42 -8 64.5t-37 39.5q-33 17 -59 17q-30 0 -54 -17q-19 -13 -28 -35.5t-9.5 -34.5t-0.5 -46v-447z" />
<glyph unicode="e" d="M78 317v443q0 84 26 141q36 86 121.5 127t188.5 41q115 0 191 -45.5t104 -103.5t28 -150v-299h-415v-172q0 -52 6 -70q18 -59 84 -59q59 0 77 57q9 26 9 119h235v-84q0 -59 -10 -94q-52 -188 -311 -188q-254 0 -316 200q-18 66 -18 137zM322 643h174v129v20.5t-4 25.5 t-12 29.5t-25.5 20t-42.5 9.5q-90 0 -90 -105v-129z" />
<glyph unicode="f" horiz-adv-x="512" d="M23 887v162h108v63.5v48v32.5v24v15t1 12.5t1 9t1.5 12.5t2.5 16q8 69 62 117q27 23 63.5 35t64 14t74.5 2q33 0 91 -4v-201q-34 4 -53 4q-13 0 -19 -2q-45 -10 -45 -69v-129h108v-162h-110v-887h-242v887h-108z" />
<glyph unicode="g" horiz-adv-x="854" d="M78 250v555q0 69 14 115q6 17 14.5 34.5t25.5 39t39 37.5t56 27t74 11q65 0 112 -25.5t105 -78.5v84h246v-1086q0 -21 -4 -67q-7 -139 -107 -207q-88 -62 -247 -62q-24 0 -84 6q-177 30 -222 152q-16 47 -16 129h242q0 -37 4 -49q6 -23 27.5 -42.5t62.5 -19.5q30 0 55 15 q19 11 29 31t12 36.5t2 42.5v162q-19 -22 -31 -33t-39 -30.5t-63 -29t-80 -9.5q-65 0 -125 30q-34 18 -56 43.5t-31.5 58.5t-12 60.5t-2.5 69.5zM319 293q0 -35 9 -62q19 -55 88 -55q100 0 100 117v465v9q0 118 -98 118q-36 0 -60 -19q-21 -16 -30 -39t-9 -67v-467z" />
<glyph unicode="h" horiz-adv-x="854" d="M90 0v1446h240l2 -481q18 20 29.5 30t40 31.5t65 32t78.5 10.5q72 0 127 -37.5t78 -105.5q14 -44 14 -105v-821h-244v745q0 62 -8 82q-21 47 -82 47q-73 0 -92 -71q-4 -16 -4 -43v-760h-244z" />
<glyph unicode="i" horiz-adv-x="425" d="M90 0v1049h246v-1049h-246zM90 1200v246h246v-246h-246z" />
<glyph unicode="j" horiz-adv-x="425" d="M-16 -154q38 0 54.5 4t31.5 17q7 6 11 13t6.5 11.5t3.5 15.5t1 16v22.5v25.5v1078h244v-1147q0 -172 -92 -230q-54 -34 -162 -34q-53 0 -98 6v202zM92 1202v244h244v-244h-244z" />
<glyph unicode="k" d="M90 0v1446h242v-756l200 359h271l-268 -437l296 -612h-274l-225 535v-535h-242z" />
<glyph unicode="l" horiz-adv-x="425" d="M90 0v1446h246v-1446h-246z" />
<glyph unicode="m" horiz-adv-x="1280" d="M92 0v1049h244v-70q99 92 207 92q39 0 72.5 -10.5t60.5 -32.5t36 -31t27 -30q60 52 92.5 69t79.5 27q35 6 68 6q72 0 127.5 -38t73.5 -105q10 -34 10 -95v-831h-244v776q0 27 -1 41.5t-10 33.5t-26 32q-23 14 -51 14q-98 0 -98 -133v-764h-242v770v14v14.5t-0.5 13 t-1.5 13.5t-2 12t-4 13t-6 11t-8 11.5t-11 10.5q-21 18 -57 18q-94 0 -94 -125v-776h-242z" />
<glyph unicode="n" horiz-adv-x="854" d="M90 0v1049h248l-2 -76q52 50 97.5 73t111.5 23q76 0 134.5 -38t76.5 -109q8 -29 8 -103v-819h-242v772q0 53 -6.5 76t-30.5 37q-16 12 -47 12q-104 -2 -104 -134v-7v-756h-244z" />
<glyph unicode="o" d="M78 297v469q0 78 20 133q18 47 51.5 81.5t76.5 53t88.5 27t95.5 8.5q17 0 30 -1t46.5 -4.5t61.5 -13.5t60.5 -25.5t58.5 -44t42 -65.5q24 -56 24 -139v-506q0 -60 -12 -102t-47 -82q-88 -106 -279 -106q-59 0 -104 10q-20 4 -43 12.5t-53.5 26.5t-57.5 51t-41 76 q-18 53 -18 141zM322 256q0 -109 84 -109q86 0 86 111v533q0 52 -7.5 76t-31.5 38q-17 13 -45 13q-30 0 -50 -15q-18 -13 -26.5 -35.5t-9 -34.5t-0.5 -45v-532z" />
<glyph unicode="p" horiz-adv-x="854" d="M90 -362v1411h244v-80q1 0 17 14t26.5 22t32.5 22t42 22t47 14t54 6q22 0 46.5 -4.5t63 -24.5t64.5 -55q49 -67 49 -192v-557q0 -91 -35 -156q-15 -28 -45 -55q-57 -45 -135 -45q-68 0 -115 26t-112 82v-450h-244zM334 295q0 -39 8 -59q7 -18 20 -31t28 -18t25 -7t19 -2 q34 0 56.5 15t29.5 34q10 23 10 60v485q0 42 -10 64t-33 36q-30 15 -53 15q-31 0 -55 -15q-28 -17 -36.5 -42t-8.5 -64v-471z" />
<glyph unicode="q" horiz-adv-x="854" d="M78 229v572q0 65 16 114q24 72 85.5 113t139.5 41q111 -2 203 -94v74h242v-1411h-242v450q-2 -2 -21 -19.5t-30 -25.5q-78 -66 -174 -66q-50 1 -89 17t-62 42t-35 47.5t-19 43.5q-14 43 -14 102zM322 291q0 -111 96 -111q102 0 102 119v6v483q0 27 -6 43q-10 30 -36 46 t-58 16q-27 0 -47 -10q-51 -21 -51 -95v-497z" />
<glyph unicode="r" horiz-adv-x="598" d="M90 0v1049h244l-2 -134q1 2 7 13.5t13.5 24t16.5 24.5q69 90 187 90h15l-2 -242q-38 17 -80 17q-55 0 -92 -25q-24 -17 -38.5 -39t-19.5 -54.5t-6 -49t-1 -56.5v-618h-242z" />
<glyph unicode="s" horiz-adv-x="768" d="M55 260v109h226v-82q0 -39 6 -66q4 -25 25 -46t63 -21q35 0 55 14q41 25 41 100q0 55 -13 78.5t-59 56.5l-204 146q-72 52 -98.5 106t-26.5 146q1 76 23.5 129.5t66 83t98.5 42.5t129 13q108 0 175 -32t95 -81q29 -48 29 -127v-116h-211v75q0 115 -90 115q-25 0 -45 -10 q-39 -23 -39 -84q0 -43 15.5 -65t54.5 -50l225 -157q29 -20 63 -64q39 -55 39 -170q0 -53 -2 -82.5t-14.5 -72t-38.5 -74.5q-77 -94 -268 -94q-237 0 -297 145q-23 53 -23 135z" />
<glyph unicode="t" horiz-adv-x="555" d="M14 887v162h131v381h242v-381h145v-162h-145v-598q0 -42 6 -58q16 -57 105 -57q13 0 41 4v-176q-54 -12 -125 -12q-106 0 -164.5 23.5t-81.5 74.5q-21 43 -21 121v678h-133z" />
<glyph unicode="u" horiz-adv-x="854" d="M90 258v791h246v-754v-17.5v-19t1 -16.5t3.5 -17.5t6.5 -14.5t11 -15q27 -27 66 -27q35 0 61 20q7 6 13 15t9.5 17.5t6 19t3.5 19t1.5 17.5t0 14.5t-0.5 11.5v5v742h246v-1049h-246v86q-17 -16 -23 -21.5t-32.5 -25t-47 -29t-54 -19t-66.5 -9.5q-70 0 -123 36 q-30 21 -48 47.5t-24.5 64t-8 59.5t-1.5 69z" />
<glyph unicode="v" horiz-adv-x="724" d="M2 1049h244l108 -727l125 727h244l-252 -1049h-238z" />
<glyph unicode="w" horiz-adv-x="1150" d="M8 1049h238l110 -693l123 693h199l110 -693l119 693h238l-238 -1049h-229l-103 623l-122 -623h-232z" />
<glyph unicode="x" horiz-adv-x="768" d="M8 0l228 569l-185 480h252l90 -351l94 351h236l-188 -480l225 -569h-262l-119 424l-119 -424h-252z" />
<glyph unicode="y" horiz-adv-x="724" d="M2 1049h242l135 -674l104 674h240l-240 -1125q-31 -149 -82 -211q-32 -38 -78.5 -56.5t-132.5 -18.5q-47 0 -157 18l37 192q56 -14 92 -14q39 0 64.5 26t34 53.5t11.5 57.5l2 29z" />
<glyph unicode="z" horiz-adv-x="724" d="M49 0v205l367 647h-328v197h578v-197l-363 -647h379v-205h-633z" />
<glyph unicode="{" horiz-adv-x="724" d="M78 526v158q58 7 94 29q28 18 46 47.5t24.5 72t8 69.5t1.5 74v11v187q0 145 14 200q18 67 54 111t89.5 64.5t105.5 28t124 7.5h49v-153q-85 -5 -123 -19q-20 -8 -34.5 -22t-23 -35t-13.5 -38t-6.5 -46t-2 -41t-0.5 -41q0 -231 -2 -277q-2 -49 -7 -85.5t-18.5 -75.5 t-34.5 -66t-57 -47.5t-85 -28.5v-10q53 -8 90.5 -31.5t58 -52t33 -73t16 -81t4.5 -90.5q2 -86 2 -260q0 -41 2 -66t10 -61.5t29 -59t54 -32.5q25 -7 108 -12v-154h-49q-75 0 -127.5 7.5t-106.5 29t-89.5 67.5t-51.5 117q-7 32 -10 87t-3.5 97t0.5 108t1 81v9v48t-1.5 44.5 t-4.5 44t-9 38.5t-14.5 36.5t-22 30t-30.5 26t-40.5 17.5t-51.5 11z" />
<glyph unicode="|" horiz-adv-x="419" d="M94 -344v1905h234v-1905h-234z" />
<glyph unicode="}" horiz-adv-x="724" d="M78 -219q85 4 119 16q21 7 37 21t24.5 35.5t14 38.5t7.5 46.5t2.5 42.5t0.5 42q0 182 2 272q2 62 10 107t28.5 88.5t61.5 71.5t102 38v10q-50 8 -86.5 29t-57.5 47t-34 66t-17.5 76t-6.5 87q-2 47 -2 283q0 37 -1.5 58.5t-7 54t-20.5 56t-39 38.5q-10 7 -22 11.5t-20.5 7 t-24.5 4.5t-22 2.5t-25.5 1t-22.5 0.5v153h49q59 0 103 -4t91.5 -18t81 -37.5t60.5 -65t41 -98.5q6 -28 9 -83.5t3 -101t-1 -110t-1 -76.5q0 -35 0.5 -51t2.5 -52t8 -57.5t16 -49t27 -46t40 -30.5q28 -13 80 -21v-158q-61 -9 -82 -20q-27 -14 -45.5 -39t-27.5 -48t-13.5 -61 t-5 -58.5t-0.5 -60.5v-16v-203q0 -131 -12 -180q-14 -54 -41.5 -93.5t-60 -62t-78.5 -36t-88.5 -17.5t-98.5 -4h-57v154z" />
<glyph unicode="~" horiz-adv-x="1153" d="M125 649q55 62 92 90q71 56 160 56q65 0 164 -43l102 -45q52 -23 75 -30t48 -7q42 0 82 24t92 80l88 -184q-71 -76 -133 -111t-127 -35q-62 0 -182 56l-54 24q-99 45 -149 45q-61 0 -111 -41q-39 -39 -61 -65z" />
<glyph unicode="&#xa1;" horiz-adv-x="468" d="M72 1176v270h243v-270h-243zM78 0v641l39 416h159l33 -404v-653h-231z" />
<glyph unicode="&#xa2;" d="M80 279v495q0 53 8 88q46 181 281 205v170h102v-170q25 -2 42.5 -4.5t49.5 -10.5t54.5 -19.5t50 -33t44.5 -49.5t28.5 -71t11.5 -95v-135h-242v131q0 111 -92 111q-17 0 -31 -3.5t-23.5 -9.5t-17.5 -14t-12.5 -16.5t-8 -19t-5 -19t-2 -17.5t-0.5 -15v-11l1 -6v-479 q0 -115 97 -119q15 0 28 2.5t22.5 7.5t16.5 12t11.5 14t8 16.5t5 16.5t2 16t0.5 14v11v7v139h240v-137q0 -285 -279 -306v-202h-102v202q-76 9 -131.5 33.5t-85 54t-47 71t-21.5 73.5t-4 72z" />
<glyph unicode="&#xa3;" horiz-adv-x="980" d="M45 147q0 76 52 125.5t128 49.5q18 0 38.5 -3.5t40 -9t34 -10.5t27.5 -10.5t14 -5.5q18 42 18 73q0 75 -75 213h-228v125h176l-37 86q-67 160 -67 299q0 183 104 275q95 86 254 86q156 0 250 -76q57 -46 86 -125q25 -74 25 -154v-100h-236v84q0 28 -2 49.5t-9 46 t-19 40.5t-34 27t-53 11q-45 0 -73 -24q-51 -42 -51 -158q0 -34 5 -69t10 -58.5t19 -64t19.5 -55t26 -62.5t24.5 -58h217v-125h-172q18 -69 18 -106q0 -27 -4.5 -56t-9 -49.5t-13 -47t-12.5 -37.5t-13 -33l-9 -21q4 -3 12.5 -8t12.5 -8q67 -35 104 -35q27 0 43 12 q43 33 43 125v98h207v-153q0 -60 -12 -109q-8 -27 -20.5 -51t-36.5 -52.5t-66.5 -45.5t-98.5 -17q-39 0 -88 15q-87 25 -184 90q-1 -1 -9 -9.5t-13 -13.5t-16 -14.5t-20 -16t-22 -15t-26.5 -14.5t-29.5 -11.5t-33.5 -8t-35.5 -2.5q-34 0 -75 15q-16 6 -31.5 16.5t-33.5 29 t-29 47.5t-11 64zM162 141q1 -23 17 -37t38 -14q12 1 22 4t20 11.5t15 13t16.5 17.5t14.5 16q-24 20 -50 30.5t-40 10.5q-23 0 -38 -15.5t-15 -36.5z" />
<glyph unicode="&#xa4;" horiz-adv-x="1347" d="M53 219l158 164q-92 137 -92 309q0 90 21 162.5t69 151.5l-154 161l164 170l154 -159q131 92 303 92q84 0 152 -21t145 -71l157 161l164 -172l-155 -161q49 -83 68.5 -154.5t19.5 -157.5q0 -89 -20.5 -162t-69.5 -151l157 -166l-166 -170l-157 166q-84 -52 -148.5 -72 t-148.5 -20q-87 0 -154.5 21.5t-146.5 72.5l-156 -164zM360 694q-1 -144 90.5 -242t225.5 -98q129 0 220 98.5t91 237.5q0 146 -90 246t-221 100q-134 0 -225 -98.5t-91 -243.5z" />
<glyph unicode="&#xa5;" horiz-adv-x="854" d="M25 1362h272l131 -647l123 647h276l-184 -643h162v-150h-203l-37 -116h240v-146h-246v-307h-268v307h-246v146h242l-33 116h-209v150h166z" />
<glyph unicode="&#xa6;" horiz-adv-x="419" d="M94 -344v823h234v-823h-234zM94 739v822h234v-822h-234z" />
<glyph unicode="&#xa7;" horiz-adv-x="894" d="M29 635q0 84 43.5 153t122.5 148q-46 55 -62 94t-16 107q0 181 79 257t265 76q267 0 327 -149q17 -42 17 -111v-161h-232v120q0 121 -114 121q-99 0 -99 -110q0 -22 6.5 -42.5t13.5 -34t24.5 -32.5t25.5 -26.5t32 -28t30 -25.5l245 -211q125 -106 125 -248 q0 -64 -24.5 -121.5t-54 -93.5t-83.5 -92q63 -68 80 -118t17 -152q0 -164 -90.5 -238.5t-262.5 -74.5q-108 0 -199.5 36.5t-129.5 120.5q-21 46 -21 127v174h236v-145q0 -125 108 -125q52 0 80.5 26t28.5 78q0 84 -16 114t-79 83q-3 4 -5.5 5.5t-6 4.5t-6.5 6l-258 222 q-147 125 -147 266zM248 682q0 -31 33 -78q54 -72 299 -256q1 2 10.5 14t12.5 15.5t11 14.5t11 16.5t8.5 15.5t7.5 17.5t4 17t2 18.5q0 50 -45 98q-37 41 -123 111q-28 22 -82 67.5t-82 67.5q-67 -84 -67 -139z" />
<glyph unicode="&#xa8;" horiz-adv-x="512" d="M-53 1219v254h243v-254h-243zM322 1219v254h243v-254h-243z" />
<glyph unicode="&#xa9;" horiz-adv-x="1636" d="M90 723q0 200 97 367.5t264.5 264.5t367.5 97q201 0 368.5 -96.5t264 -263.5t96.5 -367q0 -152 -56.5 -287.5t-154 -233t-233 -154t-287.5 -56.5q-198 0 -365.5 97t-264.5 264.5t-97 367.5zM184 721q0 -133 50 -252.5t134.5 -205.5t201.5 -136.5t247 -50.5 q173 0 319.5 86t232 235t85.5 326q0 178 -84.5 327t-230.5 234.5t-320 85.5q-129 0 -246.5 -51.5t-202.5 -138.5t-135.5 -207t-50.5 -252zM532 567v324q0 88 13 139.5t45 89.5q69 88 231 88q148 0 210.5 -66t62.5 -224v-72h-189v82q0 60 -20.5 85t-67.5 25q-61 0 -82 -43 q-12 -24 -12 -100v-332q0 -76 12 -100q20 -41 82 -41q48 0 68 24.5t20 85.5v91h189v-80q0 -159 -62.5 -226t-210.5 -67q-79 0 -143 24q-77 28 -111.5 97t-34.5 196z" />
<glyph unicode="&#xaa;" horiz-adv-x="468" d="M45 1022v5.5v4.5q0 35 2 52t9 37t25 34.5t46 31.5t76 40q42 19 67 33v47q0 28 -9 40.5t-36 12.5q-16 0 -26.5 -7.5t-14 -23t-4 -23.5t-0.5 -24v-20h-125v34q0 56 11 78q41 84 157 84q33 0 62 -5.5t59 -19t48 -42t18 -68.5v-356q0 -84 20 -107h-139q-3 5 -6 10.5t-4 8 t-3 7t-3 10t-3 15.5q-27 -33 -51 -46t-57 -13q-34 0 -58 11.5t-35.5 25.5t-18 41.5t-7 44t-0.5 47.5zM178 1028q0 -36 5.5 -55t25.5 -19q21 0 59 33v162l-57 -39q-22 -14 -27.5 -28.5t-5.5 -53.5z" />
<glyph unicode="&#xab;" horiz-adv-x="641" d="M63 451v188l209 199v-199l-79 -92l79 -82v-205zM360 453v192l209 193v-199l-88 -92l88 -86v-201z" />
<glyph unicode="&#xac;" horiz-adv-x="1144" d="M115 510v203h856v-584h-246v381h-610z" />
<glyph unicode="&#xad;" horiz-adv-x="643" d="M68 496v202h507v-202h-507z" />
<glyph unicode="&#xae;" horiz-adv-x="1636" d="M90 723q0 200 97 367.5t264.5 264.5t367.5 97q201 0 368.5 -96.5t264 -263.5t96.5 -367q0 -152 -56.5 -287.5t-154 -233t-233 -154t-287.5 -56.5q-198 0 -365.5 97t-264.5 264.5t-97 367.5zM184 721q0 -133 50 -252.5t134.5 -205.5t201.5 -136.5t247 -50.5 q173 0 319.5 86t232 235t85.5 326q0 178 -84.5 327t-230.5 234.5t-320 85.5q-129 0 -246.5 -51.5t-202.5 -138.5t-135.5 -207t-50.5 -252zM537 266v920h307q135 0 191.5 -43t56.5 -144v-141q0 -75 -31.5 -117.5t-102.5 -62.5l185 -412h-205l-162 389h-53v-389h-186zM723 811 h90q53 0 73.5 21t20.5 75v47q0 40 -21 58t-65 18h-98v-219z" />
<glyph unicode="&#xaf;" horiz-adv-x="512" d="M-18 1208v166h548v-166h-548z" />
<glyph unicode="&#xb0;" horiz-adv-x="724" d="M33 1217q0 137 96.5 233t232.5 96q139 0 234.5 -95.5t95.5 -233.5q0 -137 -96.5 -234.5t-233.5 -97.5t-233 97.5t-96 234.5zM201 1221q0 -66 47.5 -114t113.5 -48q68 0 115 47.5t47 114.5t-47 114t-115 47t-114.5 -47t-46.5 -114z" />
<glyph unicode="&#xb1;" horiz-adv-x="1144" d="M170 0v207h807v-207h-807zM170 645v207h285v322h241v-322h281v-207h-281v-321h-241v321h-285z" />
<glyph unicode="&#xb2;" horiz-adv-x="598" d="M41 459v26q0 64 10 116t23.5 86.5t44 72.5t53.5 60.5t70 64.5q7 7 40 36t52.5 49t27.5 36q15 29 15 69v96q0 74 -74 74q-45 0 -66.5 -18t-21.5 -62v-112h-156v114q0 105 62 155t168 52q190 0 237 -119q15 -35 15 -84v-112q0 -80 -24.5 -117t-142.5 -144q-14 -13 -22 -20 q-78 -70 -101 -100.5t-26 -75.5h326v-143h-510z" />
<glyph unicode="&#xb3;" horiz-adv-x="598" d="M51 635v115h166v-101q0 -16 2.5 -27t9.5 -23t23.5 -18t42.5 -6q52 0 68 16t16 52v133q0 24 -0.5 34.5t-6 28t-16.5 24.5t-33 13.5t-55 6.5h-65v114h65q59 0 88 29q8 9 15 31q4 10 4 45v74q0 38 -20 52.5t-60 14.5q-44 0 -61 -15t-17 -46v-97h-158v115q0 44 21 80 q55 94 223 94q154 0 213 -92q25 -38 25 -100v-84q0 -3 0.5 -18.5t0 -21t-2.5 -20t-6 -21.5t-11.5 -19.5t-18.5 -20t-28 -16.5t-39 -15q30 -3 51 -14t32.5 -24t17 -34.5t7 -38.5t1.5 -44v-136q0 -57 -22.5 -99t-51.5 -62.5t-68 -32t-59.5 -13.5t-38.5 -2q-181 0 -237 115 q-17 38 -17 74z" />
<glyph unicode="&#xb4;" horiz-adv-x="512" d="M31 1176l137 270h313l-272 -270h-178z" />
<glyph unicode="&#xb5;" horiz-adv-x="854" d="M90 -362v1411h246v-787q0 -44 23.5 -69t64.5 -25q94 0 94 117v764h246v-865q0 -83 10 -122t37 -62h-281l-6 86q-23 -49 -48.5 -69.5t-63.5 -20.5q-40 0 -76 33v-391h-246z" />
<glyph unicode="&#xb6;" horiz-adv-x="1222" d="M129 1016q0 199 121 317q49 49 110 76q49 22 98.5 29.5t139.5 7.5h432v-162h-74v-1626h-174v1626h-186v-1626h-174v958q-48 13 -82 27q-98 43 -154.5 142t-56.5 231z" />
<glyph unicode="&#xb7;" horiz-adv-x="382" d="M72 442v267h239v-267h-239z" />
<glyph unicode="&#xb8;" horiz-adv-x="512" d="M51 -313q94 -12 129 0q26 8 37.5 25t9.5 30q0 25 -18 39.5t-31.5 17t-23.5 2.5v252h90v-162h8h15h19t23 -2t24.5 -4t26 -6.5t25.5 -10.5t24.5 -14.5t20.5 -19.5q31 -31 31 -82q0 -69 -60 -110q-57 -37 -176 -37q-21 0 -49 2t-49 4t-23 2q-8 2 -53 12v62z" />
<glyph unicode="&#xb9;" horiz-adv-x="598" d="M82 1083v136q85 26 125.5 55t89.5 88h111v-903h-166v680q-30 -23 -60 -33t-100 -23z" />
<glyph unicode="&#xba;" horiz-adv-x="468" d="M51 1032v260q0 88 51.5 127t137.5 39q131 0 170 -94q8 -23 8 -76v-266q0 -49 -15 -80q-46 -88 -170 -88q-48 0 -83 12.5t-53.5 30t-29.5 44t-13.5 46.5t-2.5 45zM189 1000q-3 -15 8.5 -32.5t35.5 -17.5q21 0 32 12.5t12.5 24.5t1.5 31v282v4q0 15 -1 23t-4.5 20.5 t-14 18.5t-26.5 6q-43 0 -43 -67v-287q2 -3 -1 -18z" />
<glyph unicode="&#xbb;" horiz-adv-x="641" d="M70 260v199l88 92l-88 86v201l211 -193v-192zM367 260v199l82 92l-82 82v205l208 -191v-188z" />
<glyph unicode="&#xbc;" horiz-adv-x="1449" d="M82 1083v136q85 26 125.5 55t89.5 88h111v-903h-166v680q-30 -23 -60 -33t-100 -23zM389 -47l545 1511l129 -47l-543 -1509zM895 170v131l260 606h195v-602h55v-135h-55v-170h-154v170h-301zM1038 303h158l10 410z" />
<glyph unicode="&#xbd;" horiz-adv-x="1449" d="M82 1083v136q85 26 125.5 55t89.5 88h111v-903h-166v680q-30 -23 -60 -33t-100 -23zM354 -47l543 1511l131 -47l-545 -1509zM895 0v27q0 64 10 116t23.5 86.5t44 72.5t53.5 60t70 64q8 8 40.5 36t52.5 48.5t28 36.5q14 27 14 69v97q0 13 -2 23t-8.5 23t-22.5 20t-41 7 q-45 0 -66.5 -17.5t-21.5 -61.5v-113h-156v115q0 105 62 154.5t168 51.5q190 0 237 -118q15 -35 15 -84v-113q0 -80 -24.5 -117t-142.5 -144l-5 -5t-5.5 -4.5t-6 -5.5t-5.5 -5q-78 -70 -101 -100.5t-26 -75.5h326v-143h-510z" />
<glyph unicode="&#xbe;" horiz-adv-x="1449" d="M51 635v115h166v-101q0 -16 2.5 -27t9.5 -23t23.5 -18t42.5 -6q52 0 68 16t16 52v133q0 24 -0.5 34.5t-6 28t-16.5 24.5t-33 13.5t-55 6.5h-65v114h65q59 0 88 29q8 9 15 31q4 10 4 45v74q0 38 -20 52.5t-60 14.5q-44 0 -61 -15t-17 -46v-97h-158v115q0 44 21 80 q55 94 223 94q154 0 213 -92q25 -38 25 -100v-84q0 -3 0.5 -18.5t0 -21t-2.5 -20t-6 -21.5t-11.5 -19.5t-18.5 -20t-28 -16.5t-39 -15q30 -3 51 -14t32.5 -24t17 -34.5t7 -38.5t1.5 -44v-136q0 -57 -22.5 -99t-51.5 -62.5t-68 -32t-59.5 -13.5t-38.5 -2q-181 0 -237 115 q-17 38 -17 74zM444 -47l543 1511l131 -47l-545 -1509zM895 170v131l260 606h195v-602h55v-135h-55v-170h-154v170h-301zM1038 303h158l10 410z" />
<glyph unicode="&#xbf;" horiz-adv-x="854" d="M57 297q0 185 33 252q14 28 49 78l103 147q36 52 54.5 82t26.5 60t8.5 41t0.5 55v45h231v-92q0 -18 -1 -34t-4 -30.5t-5.5 -25.5t-8 -24t-8.5 -20.5t-10.5 -20.5t-10.5 -18t-11.5 -18.5t-11.5 -17.5l-134 -209q-6 -9 -17 -26t-14.5 -22.5t-10.5 -17.5t-8.5 -18.5 t-4.5 -18t-3.5 -22.5t-0.5 -27v-121q0 -70 22.5 -98.5t71.5 -28.5q99 0 99 111v240h227v-150q0 -39 -1 -64.5t-6 -68t-17.5 -76.5t-32.5 -59q-79 -98 -275 -98q-230 -3 -303 133q-27 50 -27 182zM324 1180v266h239v-266h-239z" />
<glyph unicode="&#xc0;" horiz-adv-x="894" d="M20 0l281 1446h305l271 -1446h-271l-35 236h-245l-39 -236h-267zM129 1833h315l136 -272h-177zM358 459h185l-88 620z" />
<glyph unicode="&#xc1;" horiz-adv-x="894" d="M20 0l281 1446h305l271 -1446h-271l-35 236h-245l-39 -236h-267zM319 1563l132 274h319l-260 -274h-191zM358 459h185l-88 620z" />
<glyph unicode="&#xc2;" horiz-adv-x="894" d="M20 0l281 1446h305l271 -1446h-271l-35 236h-245l-39 -236h-267zM137 1561l176 272h262l177 -272h-213l-90 149l-99 -149h-213zM358 459h185l-88 620z" />
<glyph unicode="&#xc3;" horiz-adv-x="894" d="M20 0l281 1446h305l271 -1446h-271l-35 236h-245l-39 -236h-267zM115 1563q2 74 17 124t61 89q51 43 120 43q63 0 174 -50q78 -38 111 -38q15 0 27 6q28 14 39 78h131l-1.5 -43.5t-3 -42t-8 -45t-14 -38.5t-22.5 -37t-33 -28q-41 -27 -92 -27q-57 0 -183 56q-5 2 -16.5 8 t-17 8.5t-15.5 7t-17 6.5t-16.5 3.5t-17.5 1.5q-70 0 -90 -82h-133zM358 459h185l-88 620z" />
<glyph unicode="&#xc4;" horiz-adv-x="894" d="M20 0l281 1446h305l271 -1446h-271l-35 236h-245l-39 -236h-267zM141 1561v247h240v-247h-240zM358 459h185l-88 620zM553 1561v247h238v-247h-238z" />
<glyph unicode="&#xc5;" horiz-adv-x="894" d="M20 0l281 1446h305l271 -1446h-271l-35 236h-245l-39 -236h-267zM281 1700q0 75 53.5 128.5t128.5 53.5q76 0 129 -54t53 -130q0 -75 -53.5 -128.5t-128.5 -53.5t-128.5 54.5t-53.5 129.5zM358 459h185l-88 620zM377 1696q0 -35 25.5 -59.5t60.5 -24.5q34 0 59 25t25 59 q-2 35 -26.5 59.5t-59.5 24.5q-34 0 -59 -24.5t-25 -59.5z" />
<glyph unicode="&#xc6;" horiz-adv-x="1449" d="M6 0l537 1446h860v-223h-461v-334h434v-217h-434v-449h463v-223h-729v299h-283l-100 -299h-287zM467 518h209v615z" />
<glyph unicode="&#xc7;" horiz-adv-x="937" d="M90 307l2 809q0 125 29 182q86 176 366 179q283 0 367 -166q27 -56 27 -154v-237h-263v182q0 33 -2 54t-9.5 45.5t-21.5 38t-39.5 23t-62.5 9.5q-41 0 -67.5 -12.5t-38.5 -37.5t-15.5 -48.5t-3.5 -59.5v-774q0 -78 26.5 -121.5t107.5 -42.5q37 1 62 11t37.5 22t19 38 t7 42t0.5 49v16v189h263v-203q0 -45 -2 -72q-14 -220 -226 -278q-39 -11 -127 -19v-86q215 0 217 -137q1 -74 -61.5 -111.5t-173.5 -37.5q-96 0 -174 20v62q20 -5 76 -5q98 0 100 58q1 16 -5.5 28t-17.5 18.5t-21.5 10t-19.5 5.5l-10 1v176q-100 11 -153 29q-49 18 -85 43.5 t-56.5 53.5t-32.5 64.5t-15.5 69t-3.5 74.5z" />
<glyph unicode="&#xc8;" horiz-adv-x="854" d="M102 0v1446h701v-219h-434v-340h409v-219h-409v-445h454v-223h-721zM109 1833h313l137 -272h-178z" />
<glyph unicode="&#xc9;" horiz-adv-x="854" d="M102 0v1446h701v-219h-434v-340h409v-219h-409v-445h454v-223h-721zM299 1563l131 274h318l-261 -274h-188z" />
<glyph unicode="&#xca;" horiz-adv-x="854" d="M102 0v1446h701v-219h-434v-340h409v-219h-409v-445h454v-223h-721zM115 1561l176 272h264l176 -272h-215l-90 149l-98 -149h-213z" />
<glyph unicode="&#xcb;" horiz-adv-x="854" d="M102 0v1446h701v-219h-434v-340h409v-219h-409v-445h454v-223h-721zM106 1561v247h240v-247h-240zM518 1561v247h238v-247h-238z" />
<glyph unicode="&#xcc;" horiz-adv-x="468" d="M-84 1833h315l136 -272h-177zM102 0v1446h265v-1446h-265z" />
<glyph unicode="&#xcd;" horiz-adv-x="468" d="M102 0v1446h265v-1446h-265zM106 1563l132 274h317l-258 -274h-191z" />
<glyph unicode="&#xce;" horiz-adv-x="468" d="M-78 1561l176 272h264l177 -272h-213l-90 149l-99 -149h-215zM102 0v1446h265v-1446h-265z" />
<glyph unicode="&#xcf;" horiz-adv-x="468" d="M-86 1561v247h240v-247h-240zM102 0v1446h265v-1446h-265zM328 1561v247h237v-247h-237z" />
<glyph unicode="&#xd0;" horiz-adv-x="980" d="M0 684v147h102v615h430h5q9 3 33 1t54 -3.5t66.5 -14.5t69.5 -31.5t63.5 -54t48.5 -83.5q23 -61 23 -144q0 -9 1 -25t1 -26v-676q0 -49 -1.5 -74t-8 -71.5t-24.5 -83.5t-48 -68q-30 -32 -66 -52t-78.5 -28t-70.5 -10t-70 -2h-428v684h-102zM369 211h94q97 0 132.5 30 t35.5 126v720q0 84 -30 116t-114 32h-118v-404h157v-147h-157v-473z" />
<glyph unicode="&#xd1;" horiz-adv-x="1024" d="M102 0v1446h342l261 -1061l-27 1061h244v-1446h-336l-256 1083l22 -1083h-250zM178 1563q4 76 19 125t61 88q49 43 121 43q61 0 172 -50q78 -38 111 -38q14 0 26 6q28 14 39 78h131q-1 -43 -3 -66.5t-9 -60.5t-24 -63.5t-44 -43.5q-47 -27 -94 -27q-72 0 -182 56 q-5 2 -23 11t-27 12.5t-24 7.5t-27 4q-69 0 -90 -84z" />
<glyph unicode="&#xd2;" horiz-adv-x="980" d="M90 309v811q0 181 90 262q107 95 316 95q145 0 235 -49t127 -121q33 -67 33 -193v-805q0 -78 -17.5 -137t-66.5 -106q-104 -97 -313 -97q-198 0 -301 84q-53 43 -72 90q-31 63 -31 166zM172 1833h315l136 -272h-177zM358 346q0 -90 25 -125q31 -43 109 -43q47 0 83 25 q23 16 34 43.5t12.5 46t1.5 55.5v748l1 8v16t-1 20.5t-2.5 24t-5.5 24.5t-9 23q-28 64 -110 64q-50 0 -86 -27q-11 -7 -19.5 -16.5t-14 -17.5t-9 -21t-5.5 -20t-3 -22.5t-1 -21v-23.5v-22v-731v-8z" />
<glyph unicode="&#xd3;" horiz-adv-x="980" d="M90 309v811q0 181 90 262q107 95 316 95q145 0 235 -49t127 -121q33 -67 33 -193v-805q0 -78 -17.5 -137t-66.5 -106q-104 -97 -313 -97q-198 0 -301 84q-53 43 -72 90q-31 63 -31 166zM358 346q0 -90 25 -125q31 -43 109 -43q47 0 83 25q23 16 34 43.5t12.5 46t1.5 55.5 v748l1 8v16t-1 20.5t-2.5 24t-5.5 24.5t-9 23q-28 64 -110 64q-50 0 -86 -27q-11 -7 -19.5 -16.5t-14 -17.5t-9 -21t-5.5 -20t-3 -22.5t-1 -21v-23.5v-22v-731v-8zM362 1563l132 274h317l-258 -274h-191z" />
<glyph unicode="&#xd4;" horiz-adv-x="980" d="M90 309v811q0 181 90 262q107 95 316 95q145 0 235 -49t127 -121q33 -67 33 -193v-805q0 -78 -17.5 -137t-66.5 -106q-104 -97 -313 -97q-198 0 -301 84q-53 43 -72 90q-31 63 -31 166zM178 1561l176 272h264l177 -272h-213l-90 149l-99 -149h-215zM358 346 q0 -90 25 -125q31 -43 109 -43q47 0 83 25q23 16 34 43.5t12.5 46t1.5 55.5v748l1 8v16t-1 20.5t-2.5 24t-5.5 24.5t-9 23q-28 64 -110 64q-50 0 -86 -27q-11 -7 -19.5 -16.5t-14 -17.5t-9 -21t-5.5 -20t-3 -22.5t-1 -21v-23.5v-22v-731v-8z" />
<glyph unicode="&#xd5;" horiz-adv-x="980" d="M90 309v811q0 181 90 262q107 95 316 95q145 0 235 -49t127 -121q33 -67 33 -193v-805q0 -78 -17.5 -137t-66.5 -106q-104 -97 -313 -97q-198 0 -301 84q-53 43 -72 90q-31 63 -31 166zM158 1563q2 74 17 124t61 89q51 43 120 43q61 0 172 -50q81 -38 113 -38q15 0 27 6 q16 8 23.5 24t15.5 54h131l-1.5 -43.5t-3 -42t-8 -45t-14 -38.5t-22.5 -37t-33 -28q-40 -27 -92 -27q-57 0 -183 56l-16 8t-17.5 8.5t-16 7t-17.5 6.5t-16.5 3.5t-18.5 1.5q-67 0 -88 -84zM358 346q0 -90 25 -125q31 -43 109 -43q47 0 83 25q23 16 34 43.5t12.5 46t1.5 55.5 v748l1 8v16t-1 20.5t-2.5 24t-5.5 24.5t-9 23q-28 64 -110 64q-50 0 -86 -27q-11 -7 -19.5 -16.5t-14 -17.5t-9 -21t-5.5 -20t-3 -22.5t-1 -21v-23.5v-22v-731v-8z" />
<glyph unicode="&#xd6;" horiz-adv-x="980" d="M90 309v811q0 181 90 262q107 95 316 95q145 0 235 -49t127 -121q33 -67 33 -193v-805q0 -78 -17.5 -137t-66.5 -106q-104 -97 -313 -97q-198 0 -301 84q-53 43 -72 90q-31 63 -31 166zM170 1561v247h240v-247h-240zM358 346q0 -90 25 -125q31 -43 109 -43q47 0 83 25 q23 16 34 43.5t12.5 46t1.5 55.5v748l1 8v16t-1 20.5t-2.5 24t-5.5 24.5t-9 23q-28 64 -110 64q-50 0 -86 -27q-11 -7 -19.5 -16.5t-14 -17.5t-9 -21t-5.5 -20t-3 -22.5t-1 -21v-23.5v-22v-731v-8zM584 1561v247h237v-247h-237z" />
<glyph unicode="&#xd7;" horiz-adv-x="1142" d="M180 811l166 180l236 -217l202 219l150 -141l-201 -219l234 -213l-162 -184l-236 219l-202 -222l-154 138l205 223z" />
<glyph unicode="&#xd8;" horiz-adv-x="980" d="M68 41l67 127q-41 72 -41 156v809q0 71 13.5 118t54.5 95q113 131 321 131q164 0 275 -78l41 78l116 -58l-67 -133q15 -24 21.5 -37.5t13 -42t6.5 -67.5v-826q0 -65 -17 -123q-13 -39 -38.5 -75t-68 -70.5t-109.5 -55t-150 -20.5q-70 0 -128 15.5t-86 31.5t-63 41 l-41 -80zM365 297q0 -24 14 -57q28 -58 110 -58q53 0 86 25q21 16 32 42t12.5 46t1.5 53v475l-256 -493v-33zM365 623l256 493v39q0 39 -15 64q-10 20 -37.5 34.5t-68.5 14.5q-46 0 -84 -23q-24 -16 -36.5 -47t-13.5 -50t-1 -58v-467z" />
<glyph unicode="&#xd9;" horiz-adv-x="980" d="M100 332v1114h267v-1075q0 -78 14 -113q28 -61 111 -61q47 0 77 22q9 6 16.5 15t12 16.5t8 19.5t5 19.5t2.5 22t1 20v22v19.5v1073h269v-1120q0 -73 -13 -127t-53 -105q-96 -125 -334 -125q-195 0 -295 105q-40 40 -61 98q-27 69 -27 160zM172 1833h315l136 -272h-177z " />
<glyph unicode="&#xda;" horiz-adv-x="980" d="M100 332v1114h267v-1075q0 -78 14 -113q28 -61 111 -61q47 0 77 22q9 6 16.5 15t12 16.5t8 19.5t5 19.5t2.5 22t1 20v22v19.5v1073h269v-1120q0 -73 -13 -127t-53 -105q-96 -125 -334 -125q-195 0 -295 105q-40 40 -61 98q-27 69 -27 160zM362 1563l132 274h317 l-258 -274h-191z" />
<glyph unicode="&#xdb;" horiz-adv-x="980" d="M100 332v1114h267v-1075q0 -78 14 -113q28 -61 111 -61q47 0 77 22q9 6 16.5 15t12 16.5t8 19.5t5 19.5t2.5 22t1 20v22v19.5v1073h269v-1120q0 -73 -13 -127t-53 -105q-96 -125 -334 -125q-195 0 -295 105q-40 40 -61 98q-27 69 -27 160zM178 1561l176 272h264l177 -272 h-213l-90 149l-99 -149h-215z" />
<glyph unicode="&#xdc;" horiz-adv-x="980" d="M100 332v1114h267v-1075q0 -78 14 -113q28 -61 111 -61q47 0 77 22q9 6 16.5 15t12 16.5t8 19.5t5 19.5t2.5 22t1 20v22v19.5v1073h269v-1120q0 -73 -13 -127t-53 -105q-96 -125 -334 -125q-195 0 -295 105q-40 40 -61 98q-27 69 -27 160zM172 1561v247h240v-247h-240z M586 1561v247h237v-247h-237z" />
<glyph unicode="&#xdd;" horiz-adv-x="854" d="M2 1446h281l147 -729l141 729h281l-289 -1018v-428h-272v446zM299 1563l131 274h318l-261 -274h-188z" />
<glyph unicode="&#xde;" horiz-adv-x="937" d="M102 0v1446h269v-240h268q61 0 105.5 -15t71 -40t42 -64.5t20.5 -79.5t5 -94v-223q0 -3 0.5 -36t0 -44.5t-3 -43.5t-7.5 -47.5t-15 -41.5t-24 -41.5t-35.5 -31.5t-48.5 -25q-55 -19 -154 -19h-225v-360h-269zM371 567h129h11q25 0 36.5 0.5t28.5 6.5t25 18t14 35.5 t6 58.5v197q0 35 -9.5 58t-26.5 33t-32 13.5t-35 3.5h-147v-424z" />
<glyph unicode="&#xdf;" horiz-adv-x="854" d="M90 0v1206q0 59 9 99.5t38 76.5q78 95 271 95q59 0 88 -4q171 -21 221 -136q20 -51 20 -123v-133q0 -40 -1 -60t-5.5 -43.5t-13 -34.5t-25.5 -23t-40.5 -19t-59.5 -14q32 -5 45 -7.5t40.5 -11t41 -18t29 -28t22.5 -42.5q10 -38 10 -143v-399q0 -70 -12 -109 q-44 -147 -240 -147q-51 0 -139 18l2 141q51 -5 62 -4q16 1 29 4.5t21.5 10.5t15.5 14t10.5 17.5t6 18.5t3 18.5t1 16.5t0 14t-0.5 9v375q0 74 -24.5 106.5t-96.5 32.5h-37v166h29q65 0 87.5 22t22.5 91v149q0 18 -2 30t-9.5 31t-28 29.5t-52.5 10.5q-71 0 -86 -39 q-8 -16 -8 -54v-1210h-244z" />
<glyph unicode="&#xe0;" d="M66 238v31v28q0 102 10 141q12 43 39 74q34 41 110 78l254 127v61q0 48 -7 73t-26 38q-23 14 -53 14q-58 0 -76 -41q-8 -18 -8 -98v-39h-223v119q0 92 59 149q78 78 265 78q213 0 286 -131q25 -43 25 -100v-584v-32.5v-44.5t1.5 -43t5 -47.5t9.5 -38t15 -32.5 q2 -7 16 -18h-256q-15 17 -20.5 35t-8.5 57q-4 -4 -16.5 -18t-20.5 -21q-76 -76 -174 -76q-75 0 -127 39q-13 9 -23.5 21t-18 22.5t-13.5 28t-10 27.5t-7 31.5t-4 29.5t-2 32.5t-1 29.5zM88 1446h313l136 -270h-177zM303 283q0 -64 12 -93t47 -28q46 0 89 37l26 22v307 l-119 -77q-12 -9 -20 -17q-22 -21 -28.5 -52.5t-6.5 -98.5z" />
<glyph unicode="&#xe1;" d="M66 238v31v28q0 102 10 141q12 43 39 74q34 41 110 78l254 127v61q0 48 -7 73t-26 38q-23 14 -53 14q-58 0 -76 -41q-8 -18 -8 -98v-39h-223v119q0 92 59 149q78 78 265 78q213 0 286 -131q25 -43 25 -100v-584v-32.5v-44.5t1.5 -43t5 -47.5t9.5 -38t15 -32.5 q2 -7 16 -18h-256q-15 17 -20.5 35t-8.5 57q-4 -4 -16.5 -18t-20.5 -21q-76 -76 -174 -76q-75 0 -127 39q-13 9 -23.5 21t-18 22.5t-13.5 28t-10 27.5t-7 31.5t-4 29.5t-2 32.5t-1 29.5zM254 1176l137 270h314l-273 -270h-178zM303 283q0 -64 12 -93t47 -28q46 0 89 37 l26 22v307l-119 -77q-12 -9 -20 -17q-22 -21 -28.5 -52.5t-6.5 -98.5z" />
<glyph unicode="&#xe2;" d="M66 238v31v28q0 102 10 141q12 43 39 74q34 41 110 78l254 127v61q0 48 -7 73t-26 38q-23 14 -53 14q-58 0 -76 -41q-8 -18 -8 -98v-39h-223v119q0 92 59 149q78 78 265 78q213 0 286 -131q25 -43 25 -100v-584v-32.5v-44.5t1.5 -43t5 -47.5t9.5 -38t15 -32.5 q2 -7 16 -18h-256q-15 17 -20.5 35t-8.5 57q-4 -4 -16.5 -18t-20.5 -21q-76 -76 -174 -76q-75 0 -127 39q-13 9 -23.5 21t-18 22.5t-13.5 28t-10 27.5t-7 31.5t-4 29.5t-2 32.5t-1 29.5zM94 1176l176 270h265l176 -270h-215l-90 149l-99 -149h-213zM303 283q0 -64 12 -93 t47 -28q46 0 89 37l26 22v307l-119 -77q-12 -9 -20 -17q-22 -21 -28.5 -52.5t-6.5 -98.5z" />
<glyph unicode="&#xe3;" d="M66 238v31v28q0 102 10 141q12 43 39 74q34 41 110 78l254 127v61q0 48 -7 73t-26 38q-23 14 -53 14q-58 0 -76 -41q-8 -18 -8 -98v-39h-223v119q0 92 59 149q78 78 265 78q213 0 286 -131q25 -43 25 -100v-584v-32.5v-44.5t1.5 -43t5 -47.5t9.5 -38t15 -32.5 q2 -7 16 -18h-256q-15 17 -20.5 35t-8.5 57q-4 -4 -16.5 -18t-20.5 -21q-76 -76 -174 -76q-75 0 -127 39q-13 9 -23.5 21t-18 22.5t-13.5 28t-10 27.5t-7 31.5t-4 29.5t-2 32.5t-1 29.5zM72 1176q4 76 18.5 126t59.5 89q51 43 122 43q63 0 172 -52q86 -39 111 -39q9 0 27 9 q17 9 25 25.5t14 52.5l131 -3q-1 -34 -2 -52t-5.5 -49.5t-12.5 -51.5t-24 -42t-38 -36q-44 -29 -92 -29q-57 2 -183 58q-6 3 -23 11t-26 12t-24 8t-27 4q-69 -2 -90 -84h-133zM303 283q0 -64 12 -93t47 -28q46 0 89 37l26 22v307l-119 -77q-12 -9 -20 -17 q-22 -21 -28.5 -52.5t-6.5 -98.5z" />
<glyph unicode="&#xe4;" d="M66 238v31v28q0 102 10 141q12 43 39 74q34 41 110 78l254 127v61q0 48 -7 73t-26 38q-23 14 -53 14q-58 0 -76 -41q-8 -18 -8 -98v-39h-223v119q0 92 59 149q78 78 265 78q213 0 286 -131q25 -43 25 -100v-584v-32.5v-44.5t1.5 -43t5 -47.5t9.5 -38t15 -32.5 q2 -7 16 -18h-256q-15 17 -20.5 35t-8.5 57q-4 -4 -16.5 -18t-20.5 -21q-76 -76 -174 -76q-75 0 -127 39q-13 9 -23.5 21t-18 22.5t-13.5 28t-10 27.5t-7 31.5t-4 29.5t-2 32.5t-1 29.5zM94 1219v254h244v-254h-244zM303 283q0 -64 12 -93t47 -28q46 0 89 37l26 22v307 l-119 -77q-12 -9 -20 -17q-22 -21 -28.5 -52.5t-6.5 -98.5zM469 1219v254h244v-254h-244z" />
<glyph unicode="&#xe5;" d="M66 238v31v28q0 102 10 141q12 43 39 74q34 41 110 78l254 127v61q0 48 -7 73t-26 38q-23 14 -53 14q-58 0 -76 -41q-8 -18 -8 -98v-39h-223v119q0 92 59 149q78 78 265 78q213 0 286 -131q25 -43 25 -100v-584v-32.5v-44.5t1.5 -43t5 -47.5t9.5 -38t15 -32.5 q2 -7 16 -18h-256q-15 17 -20.5 35t-8.5 57q-4 -4 -16.5 -18t-20.5 -21q-76 -76 -174 -76q-75 0 -127 39q-13 9 -23.5 21t-18 22.5t-13.5 28t-10 27.5t-7 31.5t-4 29.5t-2 32.5t-1 29.5zM231 1356q0 75 54.5 128.5t130.5 53.5t129 -53.5t53 -130.5q0 -74 -54 -128.5 t-130 -54.5q-75 0 -129 55t-54 130zM303 283q0 -64 12 -93t47 -28q46 0 89 37l26 22v307l-119 -77q-12 -9 -20 -17q-22 -21 -28.5 -52.5t-6.5 -98.5zM330 1352q0 -34 25.5 -59t60.5 -25q34 0 58 25t24 59q0 36 -25 60t-59 24t-59 -24.5t-25 -59.5z" />
<glyph unicode="&#xe6;" horiz-adv-x="1236" d="M63 322q0 115 35 167q8 11 19 22.5t22.5 21t25 18.5t25.5 15.5l24 13t20 10.5t15 7l7 3l233 96v88q0 59 -34 80q-23 17 -56 17q-94 0 -94 -103v-63h-219v114q0 105 59 164q76 76 226 76q92 0 174 -29q47 -18 71 -30q6 3 22 12t24 12q71 35 194 35q27 0 58.5 -5t80 -21 t90 -55t62.5 -97q20 -56 20 -107v-315h-434v-186q0 -45 2 -54q18 -61 92 -61q57 0 78 35q17 24 17 78v67h243v-72q0 -173 -106 -243q-83 -56 -221 -56q-78 0 -128.5 18.5t-125.5 65.5q-133 -81 -262 -81q-14 0 -26 1t-40.5 4.5t-52.5 13t-51 25t-47 42.5t-29 63 q-13 55 -13 193zM295 283q0 -117 88 -117q58 0 104 55v293q-61 -26 -98 -45q-17 -10 -30.5 -20t-23 -22t-17 -21t-11.5 -23t-7 -21t-4 -22.5t-1 -20v-20v-16.5zM733 633h187v131q0 25 -1 38t-9.5 30.5t-24.5 29.5q-27 17 -58 17q-12 0 -26 -2.5t-33 -15.5t-27 -34t-8 -57 v-137z" />
<glyph unicode="&#xe7;" d="M78 285v465q0 90 28 153q22 48 62.5 83t77.5 50.5t81 23.5t61 8.5t31 0.5h1q40 0 81 -7t88 -23.5t86 -51.5t58 -84q19 -45 19 -127v-125h-240v127q0 119 -94 117q-33 -1 -55 -15.5t-30.5 -35t-12 -41t-2.5 -35.5l1 -14v-457q0 -43 3 -57q16 -81 94 -80q49 0 71.5 32 t22.5 103v121h242v-119q0 -232 -183 -297q-30 -11 -120 -20v-95q215 0 217 -137q1 -73 -61 -111t-175 -38q-96 0 -174 20v62q25 -5 78 -5q96 0 98 58q1 16 -5.5 28t-17.5 18.5t-21.5 10t-19.5 5.5l-10 1v185q-220 22 -268 188q-12 41 -12 115z" />
<glyph unicode="&#xe8;" d="M78 317v443q0 84 26 141q36 86 121.5 127t188.5 41q115 0 191 -45.5t104 -103.5t28 -150v-299h-415v-172q0 -52 6 -70q18 -59 84 -59q59 0 77 57q9 26 9 119h235v-84q0 -59 -10 -94q-52 -188 -311 -188q-254 0 -316 200q-18 66 -18 137zM88 1446h313l136 -270h-177z M322 643h174v129v20.5t-4 25.5t-12 29.5t-25.5 20t-42.5 9.5q-90 0 -90 -105v-129z" />
<glyph unicode="&#xe9;" d="M78 317v443q0 84 26 141q36 86 121.5 127t188.5 41q115 0 191 -45.5t104 -103.5t28 -150v-299h-415v-172q0 -52 6 -70q18 -59 84 -59q59 0 77 57q9 26 9 119h235v-84q0 -59 -10 -94q-52 -188 -311 -188q-254 0 -316 200q-18 66 -18 137zM254 1176l137 270h314l-273 -270 h-178zM322 643h174v129v20.5t-4 25.5t-12 29.5t-25.5 20t-42.5 9.5q-90 0 -90 -105v-129z" />
<glyph unicode="&#xea;" d="M78 317v443q0 84 26 141q36 86 121.5 127t188.5 41q115 0 191 -45.5t104 -103.5t28 -150v-299h-415v-172q0 -52 6 -70q18 -59 84 -59q59 0 77 57q9 26 9 119h235v-84q0 -59 -10 -94q-52 -188 -311 -188q-254 0 -316 200q-18 66 -18 137zM94 1176l176 270h265l176 -270 h-215l-90 149l-99 -149h-213zM322 643h174v129v20.5t-4 25.5t-12 29.5t-25.5 20t-42.5 9.5q-90 0 -90 -105v-129z" />
<glyph unicode="&#xeb;" d="M78 317v443q0 84 26 141q36 86 121.5 127t188.5 41q115 0 191 -45.5t104 -103.5t28 -150v-299h-415v-172q0 -52 6 -70q18 -59 84 -59q59 0 77 57q9 26 9 119h235v-84q0 -59 -10 -94q-52 -188 -311 -188q-254 0 -316 200q-18 66 -18 137zM92 1219v254h244v-254h-244z M322 643h174v129v20.5t-4 25.5t-12 29.5t-25.5 20t-42.5 9.5q-90 0 -90 -105v-129zM467 1219v254h244v-254h-244z" />
<glyph unicode="&#xec;" horiz-adv-x="425" d="M-104 1446h313l135 -270h-176zM90 0v1049h246v-1049h-246z" />
<glyph unicode="&#xed;" horiz-adv-x="425" d="M63 1176l138 270h313l-272 -270h-179zM90 0v1049h246v-1049h-246z" />
<glyph unicode="&#xee;" horiz-adv-x="425" d="M-98 1176l176 270h264l176 -270h-215l-90 147l-98 -147h-213zM90 0v1049h246v-1049h-246z" />
<glyph unicode="&#xef;" horiz-adv-x="425" d="M-100 1219v254h243v-254h-243zM90 0v1049h246v-1049h-246zM274 1219v254h244v-254h-244z" />
<glyph unicode="&#xf0;" d="M78 297v469q0 80 18 131q33 85 108 129.5t150 44.5q56 0 86.5 -15.5t57.5 -51.5q-22 108 -64 190l-231 -78l-47 109l211 71q-62 62 -103 95l203 84q31 -29 108 -109l144 47l47 -113l-125 -38q32 -58 51 -114.5t27 -119.5t10 -107t2 -120l2 -529q0 -81 -24 -135 q-22 -46 -60.5 -79t-73 -47.5t-76.5 -22.5t-58.5 -8.5t-31.5 0.5h-1h-2q-6 -3 -28 -0.5t-50 4t-63 14t-67 30t-60.5 52t-43.5 80.5q-16 53 -16 137zM322 256q0 -111 88 -109q82 4 82 103v541q0 26 -2 42.5t-9.5 39t-26 34t-48.5 11.5q-33 0 -54 -21q-7 -6 -12.5 -13.5 t-8.5 -16.5t-5.5 -15.5t-3 -17t-0.5 -15.5v-17v-14v-532z" />
<glyph unicode="&#xf1;" horiz-adv-x="854" d="M90 0v1049h248l-2 -76q52 50 97.5 73t111.5 23q76 0 134.5 -38t76.5 -109q8 -29 8 -103v-819h-242v772q0 53 -6.5 76t-30.5 37q-16 12 -47 12q-107 -2 -104 -141v-756h-244zM92 1176q4 76 19 126t61 89q49 43 121 43q57 0 172 -52q83 -39 110 -39q11 0 29 9q26 15 39 78 h131q-1 -41 -3.5 -66t-9.5 -61.5t-24.5 -63t-44.5 -43.5q-44 -29 -92 -29q-52 2 -184 58q-5 2 -23 11t-27 12.5t-24 7.5t-27 4t-23 -3.5t-19 -8t-15 -12t-11 -13t-8.5 -14.5t-6.5 -13.5t-4.5 -11.5t-2.5 -8h-133z" />
<glyph unicode="&#xf2;" d="M78 297v469q0 78 20 133q18 47 51.5 81.5t76.5 53t88.5 27t95.5 8.5q17 0 30 -1t46.5 -4.5t61.5 -13.5t60.5 -25.5t58.5 -44t42 -65.5q24 -56 24 -139v-506q0 -60 -12 -102t-47 -82q-88 -106 -279 -106q-59 0 -104 10q-20 4 -43 12.5t-53.5 26.5t-57.5 51t-41 76 q-18 53 -18 141zM88 1446h313l136 -270h-177zM322 256q0 -109 84 -109q86 0 86 111v533q0 52 -7.5 76t-31.5 38q-17 13 -45 13q-30 0 -50 -15q-18 -13 -26.5 -35.5t-9 -34.5t-0.5 -45v-532z" />
<glyph unicode="&#xf3;" d="M78 297v469q0 78 20 133q18 47 51.5 81.5t76.5 53t88.5 27t95.5 8.5q17 0 30 -1t46.5 -4.5t61.5 -13.5t60.5 -25.5t58.5 -44t42 -65.5q24 -56 24 -139v-506q0 -60 -12 -102t-47 -82q-88 -106 -279 -106q-59 0 -104 10q-20 4 -43 12.5t-53.5 26.5t-57.5 51t-41 76 q-18 53 -18 141zM254 1176l137 270h314l-273 -270h-178zM322 256q0 -109 84 -109q86 0 86 111v533q0 52 -7.5 76t-31.5 38q-17 13 -45 13q-30 0 -50 -15q-18 -13 -26.5 -35.5t-9 -34.5t-0.5 -45v-532z" />
<glyph unicode="&#xf4;" d="M78 297v469q0 78 20 133q18 47 51.5 81.5t76.5 53t88.5 27t95.5 8.5q17 0 30 -1t46.5 -4.5t61.5 -13.5t60.5 -25.5t58.5 -44t42 -65.5q24 -56 24 -139v-506q0 -60 -12 -102t-47 -82q-88 -106 -279 -106q-59 0 -104 10q-20 4 -43 12.5t-53.5 26.5t-57.5 51t-41 76 q-18 53 -18 141zM94 1176l176 270h265l176 -270h-215l-90 149l-99 -149h-213zM322 256q0 -109 84 -109q86 0 86 111v533q0 52 -7.5 76t-31.5 38q-17 13 -45 13q-30 0 -50 -15q-18 -13 -26.5 -35.5t-9 -34.5t-0.5 -45v-532z" />
<glyph unicode="&#xf5;" d="M72 1176q4 76 18.5 126t59.5 89q51 43 122 43q63 0 172 -52q86 -39 111 -39q9 0 27 9q17 9 25 25.5t14 52.5h131l-1.5 -43.5t-3 -42t-8 -45t-14 -38.5t-22.5 -37t-33 -28q-44 -29 -92 -29q-57 2 -183 58q-6 3 -23 11t-26 12t-24 8t-27 4q-69 -2 -90 -84h-133zM78 297v469 q0 78 20 133q18 47 51.5 81.5t76.5 53t88.5 27t95.5 8.5q17 0 30 -1t46.5 -4.5t61.5 -13.5t60.5 -25.5t58.5 -44t42 -65.5q24 -56 24 -139v-506q0 -60 -12 -102t-47 -82q-88 -106 -279 -106q-59 0 -104 10q-20 4 -43 12.5t-53.5 26.5t-57.5 51t-41 76q-18 53 -18 141z M322 256q0 -109 84 -109q86 0 86 111v533q0 52 -7.5 76t-31.5 38q-17 13 -45 13q-30 0 -50 -15q-18 -13 -26.5 -35.5t-9 -34.5t-0.5 -45v-532z" />
<glyph unicode="&#xf6;" d="M78 297v469q0 78 20 133q18 47 51.5 81.5t76.5 53t88.5 27t95.5 8.5q17 0 30 -1t46.5 -4.5t61.5 -13.5t60.5 -25.5t58.5 -44t42 -65.5q24 -56 24 -139v-506q0 -60 -12 -102t-47 -82q-88 -106 -279 -106q-59 0 -104 10q-20 4 -43 12.5t-53.5 26.5t-57.5 51t-41 76 q-18 53 -18 141zM88 1219v254h244v-254h-244zM322 256q0 -109 84 -109q86 0 86 111v533q0 52 -7.5 76t-31.5 38q-17 13 -45 13q-30 0 -50 -15q-18 -13 -26.5 -35.5t-9 -34.5t-0.5 -45v-532zM463 1219v254h244v-254h-244z" />
<glyph unicode="&#xf7;" horiz-adv-x="1144" d="M152 508v207h841v-207h-841zM459 131v262h229v-262h-229zM459 829v263h229v-263h-229z" />
<glyph unicode="&#xf8;" d="M18 33l74 117q-3 7 -4.5 13.5t-3 11t-2.5 12t-1.5 11.5t-0.5 14v15.5v20v22.5v506q0 27 1 42t7.5 51t26.5 68t51 58q88 74 240 74q57 0 107.5 -13t72.5 -24t55 -31l51 78l84 -53l-74 -106q20 -33 24.5 -65.5t4.5 -86.5v-498q0 -131 -80 -209q-47 -47 -103.5 -64 t-133.5 -17q-85 0 -135.5 17t-120.5 69l-58 -84zM299 260q0 -60 39 -84q20 -16 61 -16q73 0 95 51q10 21 10 63v338l-205 -323v-29zM301 475l207 320l-2 22q-3 40 -28 62t-68 22q-37 0 -62 -16q-47 -31 -47 -117v-293z" />
<glyph unicode="&#xf9;" horiz-adv-x="854" d="M90 258v791h246v-754v-17.5v-19t1 -16.5t3.5 -17.5t6.5 -14.5t11 -15q27 -27 66 -27q35 0 61 20q7 6 13 15t9.5 17.5t6 19t3.5 19t1.5 17.5t0 14.5t-0.5 11.5v5v742h246v-1049h-246v86q-17 -16 -23 -21.5t-32.5 -25t-47 -29t-54 -19t-66.5 -9.5q-70 0 -123 36 q-30 21 -48 47.5t-24.5 64t-8 59.5t-1.5 69zM111 1446h313l135 -270h-176z" />
<glyph unicode="&#xfa;" horiz-adv-x="854" d="M90 258v791h246v-754v-17.5v-19t1 -16.5t3.5 -17.5t6.5 -14.5t11 -15q27 -27 66 -27q35 0 61 20q7 6 13 15t9.5 17.5t6 19t3.5 19t1.5 17.5t0 14.5t-0.5 11.5v5v742h246v-1049h-246v86q-17 -16 -23 -21.5t-32.5 -25t-47 -29t-54 -19t-66.5 -9.5q-70 0 -123 36 q-30 21 -48 47.5t-24.5 64t-8 59.5t-1.5 69zM274 1176l138 270h313l-272 -270h-179z" />
<glyph unicode="&#xfb;" horiz-adv-x="854" d="M90 258v791h246v-754v-17.5v-19t1 -16.5t3.5 -17.5t6.5 -14.5t11 -15q27 -27 66 -27q35 0 61 20q7 6 13 15t9.5 17.5t6 19t3.5 19t1.5 17.5t0 14.5t-0.5 11.5v5v742h246v-1049h-246v86q-17 -16 -23 -21.5t-32.5 -25t-47 -29t-54 -19t-66.5 -9.5q-70 0 -123 36 q-30 21 -48 47.5t-24.5 64t-8 59.5t-1.5 69zM117 1176l176 270h264l176 -270h-215l-90 147l-98 -147h-213z" />
<glyph unicode="&#xfc;" horiz-adv-x="854" d="M90 258v791h246v-754v-17.5v-19t1 -16.5t3.5 -17.5t6.5 -14.5t11 -15q27 -27 66 -27q35 0 61 20q7 6 13 15t9.5 17.5t6 19t3.5 19t1.5 17.5t0 14.5t-0.5 11.5v5v742h246v-1049h-246v86q-17 -16 -23 -21.5t-32.5 -25t-47 -29t-54 -19t-66.5 -9.5q-70 0 -123 36 q-30 21 -48 47.5t-24.5 64t-8 59.5t-1.5 69zM109 1219v254h243v-254h-243zM483 1219v254h244v-254h-244z" />
<glyph unicode="&#xfd;" horiz-adv-x="724" d="M2 1049h242l135 -674l104 674h240l-240 -1125q-31 -149 -82 -211q-32 -38 -78.5 -56.5t-132.5 -18.5q-47 0 -157 18l37 192q56 -14 92 -14q39 0 64.5 26t34 53.5t11.5 57.5l2 29zM211 1176l137 270h314l-273 -270h-178z" />
<glyph unicode="&#xfe;" horiz-adv-x="854" d="M90 -362v1808h244v-477q105 100 217 100q75 0 129 -39q35 -25 56 -56.5t29 -73t9.5 -65t1.5 -67.5v-530q0 -135 -62 -196.5t-155 -61.5q-21 0 -41 3.5t-34.5 7t-33.5 13.5t-28 14.5t-26.5 18t-21.5 16.5t-22 19l-18 16v-450h-244zM334 281q0 -57 31.5 -80t66.5 -23 q98 0 98 109v485q0 115 -96 115q-100 0 -100 -121v-485z" />
<glyph unicode="&#xff;" horiz-adv-x="724" d="M2 1049h242l135 -674l104 674h240l-240 -1125q-31 -149 -82 -211q-32 -38 -78.5 -56.5t-132.5 -18.5q-47 0 -157 18l37 192q56 -14 92 -14q39 0 64.5 26t34 53.5t11.5 57.5l2 29zM49 1219v254h244v-254h-244zM424 1219v254h244v-254h-244z" />
<glyph unicode="&#x152;" horiz-adv-x="1409" d="M90 324v749q0 53 2 80q5 100 42.5 170t121.5 111q85 43 197 43q133 0 227 -64q18 -12 55 -49v82h608v-223h-456v-338h432v-213h-432v-445h473v-227h-625l-2 63q-32 -28 -63 -45q-87 -49 -219 -49q-24 0 -48 1.5t-73 13t-87.5 31t-77 61t-56.5 98.5q-19 65 -19 150z M358 336q0 -36 7 -64q30 -92 124 -90q44 0 80 25q24 18 35.5 45t12.5 44t1 54v737q0 61 -4 86t-20 50q-30 47 -107 47q-75 0 -104 -51q-15 -25 -20 -52.5t-5 -81.5v-749z" />
<glyph unicode="&#x153;" horiz-adv-x="1236" d="M78 295v448q0 81 16 131q29 94 113.5 144.5t187.5 50.5q54 0 102.5 -14.5t116.5 -63.5q1 1 11.5 7t16 9t18 9.5t21.5 10.5t23.5 10.5t26.5 10t28.5 8t32 7t33 4.5t35.5 2q92 0 169.5 -44.5t109.5 -127.5q20 -47 20 -133v-293h-416v-192q0 -36 6.5 -58.5t30.5 -38.5 q21 -16 58 -16q29 0 47 12q37 25 37 98l2 76h235v-86q0 -74 -12 -119q-49 -170 -293 -170q-60 0 -110.5 12.5t-74.5 24.5t-57 33q-107 -67 -231 -67q-99 0 -176.5 44.5t-108.5 133.5q-18 49 -18 137zM326 260q0 -29 4 -41q16 -59 78 -59q23 0 47 12q24 13 34.5 32.5 t10.5 61.5v508q0 42 -8 63t-27 33q-21 15 -49 15q-30 0 -49 -13q-8 -6 -15 -13t-11.5 -13.5t-7.5 -15t-4.5 -14.5t-2 -14t-0.5 -12v-10v-6v-514zM741 635h179v139q0 38 -7.5 60.5t-33.5 39.5q-30 15 -48 15q-23 0 -45 -12q-28 -16 -36.5 -39.5t-8.5 -61.5v-141z" />
<glyph unicode="&#x178;" horiz-adv-x="854" d="M2 1446h281l147 -729l141 729h281l-289 -1018v-428h-272v446zM106 1561v247h240v-247h-240zM518 1561v247h238v-247h-238z" />
<glyph unicode="&#x2c6;" horiz-adv-x="512" d="M-53 1176l176 270h264l178 -270h-215l-90 149l-98 -149h-215z" />
<glyph unicode="&#x2dc;" horiz-adv-x="512" d="M-84 1176q4 76 19 126t61 89q49 43 121 43q63 0 172 -52q86 -39 110 -39q9 0 27 9q17 9 25 25.5t14 52.5l131 -3q-1 -43 -3 -66t-9 -59.5t-24 -62.5t-44 -43q-44 -29 -94 -29q-56 2 -182 58q-5 2 -23 11t-27 12.5t-24 7.5t-27 4t-23 -3.5t-19 -8t-15 -12t-11 -13 t-8.5 -14.5t-6.5 -13.5t-4.5 -11.5t-2.5 -8h-133z" />
<glyph unicode="&#x2000;" horiz-adv-x="941" />
<glyph unicode="&#x2001;" horiz-adv-x="1882" />
<glyph unicode="&#x2002;" horiz-adv-x="941" />
<glyph unicode="&#x2003;" horiz-adv-x="1882" />
<glyph unicode="&#x2004;" horiz-adv-x="627" />
<glyph unicode="&#x2005;" horiz-adv-x="470" />
<glyph unicode="&#x2006;" horiz-adv-x="313" />
<glyph unicode="&#x2007;" horiz-adv-x="313" />
<glyph unicode="&#x2008;" horiz-adv-x="235" />
<glyph unicode="&#x2009;" horiz-adv-x="376" />
<glyph unicode="&#x200a;" horiz-adv-x="104" />
<glyph unicode="&#x2010;" horiz-adv-x="643" d="M68 496v202h507v-202h-507z" />
<glyph unicode="&#x2011;" horiz-adv-x="643" d="M68 496v202h507v-202h-507z" />
<glyph unicode="&#x2012;" horiz-adv-x="643" d="M68 496v202h507v-202h-507z" />
<glyph unicode="&#x2013;" horiz-adv-x="862" d="M68 498v200h727v-200h-727z" />
<glyph unicode="&#x2014;" horiz-adv-x="1282" d="M68 496v202h1146v-202h-1146z" />
<glyph unicode="&#x2018;" horiz-adv-x="382" d="M70 897v274l153 275h88l-125 -275h125v-274h-241z" />
<glyph unicode="&#x2019;" horiz-adv-x="382" d="M49 897l144 277h-127v272h241v-272l-164 -277h-94z" />
<glyph unicode="&#x201a;" horiz-adv-x="382" d="M53 -276l140 276h-119v264h239v-264l-170 -276h-90z" />
<glyph unicode="&#x201c;" horiz-adv-x="768" d="M70 901v266l170 279h94l-150 -279h127v-266h-241zM442 901v266l164 279h96l-139 -279h125v-266h-246z" />
<glyph unicode="&#x201d;" horiz-adv-x="768" d="M61 901l140 279h-127v266h248v-266l-164 -279h-97zM428 901l152 279h-127v266h241v-266l-172 -279h-94z" />
<glyph unicode="&#x201e;" horiz-adv-x="768" d="M78 0v266h239v-266l-141 -281h-88l119 281h-129zM449 0v266h241v-266l-149 -281h-92l131 281h-131z" />
<glyph unicode="&#x2022;" horiz-adv-x="681" d="M104 438v566h474v-566h-474z" />
<glyph unicode="&#x2026;" horiz-adv-x="2048" d="M231 0v256h220v-256h-220zM915 0v256h218v-256h-218zM1597 0v256h218v-256h-218z" />
<glyph unicode="&#x202f;" horiz-adv-x="376" />
<glyph unicode="&#x2039;" horiz-adv-x="342" d="M63 451v188l207 199v-199l-80 -92l80 -82v-205z" />
<glyph unicode="&#x203a;" horiz-adv-x="342" d="M70 260v199l88 92l-88 86v201l209 -193v-192z" />
<glyph unicode="&#x205f;" horiz-adv-x="470" />
<glyph unicode="&#x20ac;" horiz-adv-x="985" d="M63 754l31 139h94v100q0 56 0.5 79t5.5 71t14.5 75t30 61.5t50.5 61.5q110 95 317 95q176 0 305 -70l-53 -223q-54 48 -104 69t-119 21q-49 0 -82.5 -12.5t-52 -31.5t-28.5 -53.5t-12.5 -65.5t-2.5 -81v-96h342l-31 -137h-311v-101h284l-28 -137h-256v-129 q0 -110 38 -159.5t146 -49.5q85 0 143 25t125 86v-254q-126 -68 -331 -68q-62 0 -112.5 8t-88 20.5t-67 35.5t-49.5 45.5t-34 58.5t-21.5 66.5t-11.5 77.5t-5 83t-1 91v63h-120l28 137h92v99h-125z" />
<glyph unicode="&#x2122;" horiz-adv-x="1284" d="M18 1307v139h474v-139h-150v-541h-166v541h-158zM551 766v680h235l86 -399l82 399h234v-680h-146l2 518l-106 -518h-129l-117 526l8 -526h-149z" />
<glyph unicode="&#x25fc;" horiz-adv-x="1044" d="M0 0v1044h1044v-1044h-1044z" />
</font>
</defs>
</svg>
