<svg id="Livello_1" xmlns="http://www.w3.org/2000/svg" width="99.817" height="20.085" viewBox="105.046 188.005 99.817 20.085"><g fill="#FFF"><path d="M112.242 188.38h-6.68c-.328 0-.517.236-.517.52v18.39c0 .283.235.518.518.518h3.293c.282 0 .517-.234.517-.518v-6.537h2.917c3.387 0 6.208-2.822 6.208-6.256 0-3.34-2.82-6.116-6.256-6.116zm-.234 8.327h-2.635v-4.233h2.635c1.176 0 2.21.894 2.21 2.07 0 1.222-.987 2.163-2.21 2.163zM125.178 188.38h-3.34c-.282 0-.518.236-.518.52v18.39c0 .283.235.518.518.518h3.34c.282 0 .518-.234.518-.518V188.9c.046-.284-.236-.52-.518-.52zM145.686 197.788h-5.598c-.282 0-.517.235-.517.518v2.728c0 .283.235.518.518.518h1.74v1.6c-.846.33-1.646.424-2.492.424-3.01 0-5.504-2.493-5.504-5.55 0-3.058 2.446-5.598 5.457-5.598 1.362 0 2.586.376 3.62 1.317.235.188.518.188.753-.047l2.21-2.352c.236-.235.19-.564-.046-.752-1.882-1.646-4.422-2.587-6.773-2.587-5.55 0-9.972 4.42-9.972 10.02 0 5.55 4.42 9.924 9.972 9.924 4.045 0 6.867-1.787 6.867-1.787.095-.094.236-.28.236-.423l-.047-7.48c.046-.19-.142-.472-.424-.472zM162.055 188.38h-11.478c-.33 0-.518.236-.518.52v18.39c0 .283.234.518.517.518h11.478c.33 0 .517-.234.517-.518v-3.01c0-.282-.234-.518-.517-.518h-7.715V200h6.35c.283 0 .52-.236.52-.52v-3.01c0-.28-.236-.516-.52-.516h-6.35v-3.434h7.715c.33 0 .517-.235.517-.518v-3.01c0-.376-.235-.61-.517-.61zM204.387 188.38h-3.34c-.28 0-.517.236-.517.52v9.876h-.047l-11.1-10.677h-.707c-.282 0-.518.234-.518.517l.047 18.673c0 .283.235.518.518.518h3.293c.282 0 .518-.234.518-.518v-10.347h.047l10.96 11.006c.048.046.282.14.377.14h.423c.282 0 .518-.235.518-.517V188.9c.047-.284-.19-.52-.47-.52zM174.85 196.612c-.8 0-1.507.564-1.507 1.505 0 .706.61 1.458 1.506 1.458.893 0 1.504-.706 1.504-1.458 0-.8-.612-1.505-1.505-1.505z"/><path d="M174.85 188.1c-5.552 0-9.974 4.468-9.974 10.018s4.422 9.972 9.973 9.972c5.55 0 10.018-4.422 10.018-9.972s-4.47-10.02-10.02-10.02zm5.55 10.018c0 3.01-2.494 5.55-5.55 5.55-2.4 0-4.423-1.553-5.176-3.67h-3.903l4-3.997c.846-2.02 2.82-3.433 5.08-3.433 3.056-.047 5.55 2.493 5.55 5.55z"/></g></svg>