<svg id="Livello_1" xmlns="http://www.w3.org/2000/svg" viewBox="-276 399.4 42.5 42.5"><style>.st0{fill:#FFFFFF;}</style><path class="st0" d="M-254.7 417.5c-1.7 0-3.2 1.2-3.2 3.2 0 1.5 1.3 3.1 3.2 3.1 1.9 0 3.2-1.5 3.2-3.1-.1-1.7-1.4-3.2-3.2-3.2z"/><path class="st0" d="M-254.8 399.4c-11.8 0-21.2 9.5-21.2 21.3s9.4 21.2 21.2 21.2 21.3-9.4 21.3-21.2-9.5-21.3-21.3-21.3zm11.8 21.3c0 6.4-5.3 11.8-11.8 11.8-.4 0-.7 0-1.1-.1h-.3c-.3 0-.5-.1-.7-.1-.1 0-.2 0-.4-.1s-.5-.1-.7-.2c-.1 0-.2-.1-.3-.1l-.9-.3c-.1 0-.2-.1-.3-.2l-.6-.3c-.1-.1-.3-.2-.4-.2-.1-.1-.3-.2-.4-.3-.2-.1-.3-.2-.5-.3-.1-.1-.2-.1-.3-.2-.6-.5-1.2-1-1.7-1.5l-.1-.1c-.2-.2-.3-.4-.5-.6 0 0 0-.1-.1-.1-.7-.9-1.3-2-1.7-3.1h-8.3l8.5-8.5c0-.1.1-.2.2-.4l.3-.6c.1-.1.1-.3.2-.4.1-.2.2-.3.3-.5.1-.1.2-.2.2-.4.2-.2.3-.5.5-.7l.3-.3c.1-.2.3-.3.5-.5l.3-.3c.2-.1.3-.3.5-.4l.3-.3c.2-.2.5-.4.8-.6.1 0 .1-.1.2-.1.2-.1.5-.3.7-.4.1-.1.2-.1.3-.2l.6-.3c.1 0 .2-.1.3-.1.3-.1.6-.3.9-.4h.1c.3-.1.6-.2.9-.2.1 0 .2 0 .3-.1.2 0 .5-.1.7-.1h.3c.3 0 .7-.1 1-.1 6.6.1 11.9 5.4 11.9 11.9z"/></svg>